<svg xmlns="http://www.w3.org/2000/svg" width="44.058" height="43.746" viewBox="0 0 44.058 43.746">
  <path id="Trazado_1642" data-name="Trazado 1642" d="M1.606,34.793c.79-2.828,3.087-4.162,5.76-5,2.8-.877,5.826-1.028,7.643-1.716h0a2.4,2.4,0,0,0,1.29-1.315,4.423,4.423,0,0,0,.242-.7,8.809,8.809,0,0,0,10.886.064,4.084,4.084,0,0,0,.279.7,2.568,2.568,0,0,0,1.342,1.251h0c1.816.688,4.836.839,7.639,1.716,2.673.836,4.969,2.169,5.759,5-11.3,9.879-29.546,9.879-40.844,0m12.86-13.475A20.491,20.491,0,0,1,11.843,11.7a10.186,10.186,0,0,1,20.373,0,20.5,20.5,0,0,1-2.623,9.616c-1.738,2.989-4.23,5.136-7.561,5.136s-5.826-2.147-7.565-5.136m22.679,7.027c-3.037-.949-6.262-1.2-7.553-1.685h0a.943.943,0,0,1-.53-.525,3.905,3.905,0,0,1-.326-1.162,14.677,14.677,0,0,0,2.17-2.889A21.7,21.7,0,0,0,33.734,11.7a11.706,11.706,0,0,0-23.411,0,21.7,21.7,0,0,0,2.83,10.379,14.788,14.788,0,0,0,2.061,2.777,4.625,4.625,0,0,1-.3,1.286c-.148.331-.284.452-.445.514-1.295.489-4.52.736-7.556,1.685S.828,31.126.017,34.9a.759.759,0,0,0,.234.724c11.994,10.833,31.563,10.833,43.557,0a.758.758,0,0,0,.233-.724c-.811-3.772-3.858-5.6-6.9-6.552" fill="#5d5c5c"/>
</svg>
