<svg id="_002-hoja-1" data-name="002-hoja-1" xmlns="http://www.w3.org/2000/svg" width="39.875" height="39.875" viewBox="0 0 39.875 39.875">
  <g id="Grupo_12464" data-name="Grupo 12464">
    <g id="Grupo_12463" data-name="Grupo 12463" transform="translate(0 0)">
      <path id="Trazado_1899" data-name="Trazado 1899" d="M39.805.565a.906.906,0,0,0-.837-.56C3.8.005,0,14.581,0,20.848c0,8.131,6.191,13.594,15.406,13.594,11.638,0,14.076-11.074,15.386-17.023A30.689,30.689,0,0,1,39.61,1.553.9.9,0,0,0,39.805.565ZM29.021,17.03c-1.662,7.547-4.219,15.6-13.615,15.6-8.131,0-13.594-4.734-13.594-11.781,0-5.6,3.465-18.458,35.017-19.013A31.958,31.958,0,0,0,29.021,17.03Z" transform="translate(0 -0.005)" fill="#fff"/>
    </g>
  </g>
  <g id="Grupo_12466" data-name="Grupo 12466" transform="translate(0 9.063)">
    <g id="Grupo_12465" data-name="Grupo 12465">
      <path id="Trazado_1900" data-name="Trazado 1900" d="M25.284,107.193a.91.91,0,0,0-1.211-.42C9.343,113.91,0,131.2,0,136.588a.906.906,0,0,0,1.813,0c0-4.236,8.176-20.976,23.051-28.184A.908.908,0,0,0,25.284,107.193Z" transform="translate(0 -106.683)" fill="#fff"/>
    </g>
  </g>
</svg>
