<svg xmlns="http://www.w3.org/2000/svg" width="51.895" height="66.498" viewBox="0 0 51.895 66.498">
  <g id="_007-grifo" data-name="007-grifo" transform="translate(-56.219)">
    <g id="Layer_1-2_00000021087841039942532670000007210148459629609912_" transform="translate(56.219 0)">
      <g id="WaterDrop-2_00000178180422137520180910000007207466187014184856_" transform="translate(0 0)">
        <path id="Trazado_1863" data-name="Trazado 1863" d="M347.272,340.28a.88.88,0,0,0-1.469,0c-.7,1.065-6.853,10.515-6.853,14.372a7.587,7.587,0,1,0,15.174,0C354.125,350.795,347.973,341.346,347.272,340.28Zm-.734,20.2a5.833,5.833,0,0,1-5.827-5.827c0-2.5,3.708-8.9,5.827-12.261,2.119,3.361,5.827,9.762,5.827,12.261A5.833,5.833,0,0,1,346.538,360.479Z" transform="translate(-302.23 -295.741)"/>
        <path id="Trazado_1864" data-name="Trazado 1864" d="M94.028,36.833a.88.88,0,0,0,.88.88h12.02a.88.88,0,0,0,.88-.88V30.725a17.521,17.521,0,0,0-17.5-17.5H85.861V11.813a3.628,3.628,0,0,0-3.624-3.624h-4.15V1.76h6.54a.88.88,0,1,0,0-1.76H69.788a.88.88,0,1,0,0,1.76h6.54V8.187H72.58a3.628,3.628,0,0,0-3.624,3.624V13.22H57.979V1.753a.88.88,0,0,0-1.76,0V40.647a.88.88,0,0,0,1.76,0V27H68.957v.939A3.628,3.628,0,0,0,72.58,31.56h9.658a3.628,3.628,0,0,0,3.624-3.622V27h4.444a3.729,3.729,0,0,1,3.723,3.725v6.108ZM90.3,25.238H84.981a.88.88,0,0,0-.88.88v1.819A1.865,1.865,0,0,1,82.237,29.8H72.579a1.866,1.866,0,0,1-1.864-1.862V26.118a.88.88,0,0,0-.88-.88H57.979V14.98H69.837a.88.88,0,0,0,.88-.88V11.811A1.866,1.866,0,0,1,72.58,9.947h9.658A1.867,1.867,0,0,1,84.1,11.811V14.1a.88.88,0,0,0,.88.88h5.324a15.762,15.762,0,0,1,15.743,15.745v5.228H95.789V30.725a5.49,5.49,0,0,0-5.483-5.485Z" transform="translate(-56.219 0)"/>
      </g>
    </g>
  </g>
</svg>
