<svg xmlns="http://www.w3.org/2000/svg" width="72.751" height="85.44" viewBox="0 0 72.751 85.44">
  <g id="Layer_x0020_1" transform="translate(48.014 85.44) rotate(-160)">
    <path id="Trazado_1865" data-name="Trazado 1865" d="M13.28,72.326a12.217,12.217,0,0,0,5.933-1.837,12.6,12.6,0,0,0,4.521-4.521,12.929,12.929,0,0,0,1.554-6.781,11.856,11.856,0,0,0-1.837-6.216L42.805,19.067a10.253,10.253,0,0,0,3.956-1.413A13.644,13.644,0,0,0,49.869,14.4a9.641,9.641,0,0,0,.848-7.346,9.022,9.022,0,0,0-4.379-5.792A10.4,10.4,0,0,0,38.991.278,9.73,9.73,0,0,0,33.2,4.8a8.764,8.764,0,0,0-1.271,4.521,10.811,10.811,0,0,0,.848,4.238L13.562,47.039a12.038,12.038,0,0,0-6.64,1.413A11.732,11.732,0,0,0,1.7,53.4,13.085,13.085,0,0,0,0,59.471a12.94,12.94,0,0,0,1.554,6.075l.706-.283-.706.283a.781.781,0,0,0,1.13.424l.424-.424,4.521-7.911,9.324,5.51-4.521,7.911a.74.74,0,0,0,.283,1.13A.849.849,0,0,0,13.28,72.326Zm5.086-3.249a11.651,11.651,0,0,1-3.673,1.413l4.1-7.2h.141a1.139,1.139,0,0,0-.424-1.271l-.424.848.424-.706L7.77,55.8H7.629a.763.763,0,0,0-1.13.283L7.2,56.5,6.5,56.08l-4.1,7.2A11.418,11.418,0,0,1,1.7,59.471a11.782,11.782,0,0,1,1.554-5.227A10.4,10.4,0,0,1,7.77,49.864a12.62,12.62,0,0,1,6.075-1.13.63.63,0,0,0,.848-.424l-.706-.424.706.424L34.47,14.122a1.207,1.207,0,0,0,0-.989,8.411,8.411,0,0,1-.848-3.814,8.391,8.391,0,0,1,.989-3.673,8.277,8.277,0,0,1,4.8-3.673,8.362,8.362,0,0,1,6.075.706,8.277,8.277,0,0,1,3.673,4.8,8.431,8.431,0,0,1-.848,6.075,7.718,7.718,0,0,1-2.543,2.684,6.089,6.089,0,0,1-3.391,1.13c-.283,0-.565.283-.848.424l.848.424-.706-.424L21.756,52.407a.683.683,0,0,0,0,.989,10.8,10.8,0,0,1,1.837,5.792,10,10,0,0,1-1.413,5.933A11.386,11.386,0,0,1,18.365,69.077Z" transform="translate(0)"/>
    <path id="Trazado_1866" data-name="Trazado 1866" d="M1.607,27.915a.947.947,0,0,1-1.13.424,1.139,1.139,0,0,1-.424-1.271l15.4-26.7a.886.886,0,0,1,1.13-.283.763.763,0,0,1,.283,1.13Z" transform="translate(20.149 17.711)"/>
    <path id="Trazado_1867" data-name="Trazado 1867" d="M2.831,5.939A.138.138,0,0,0,2.69,5.8,2.255,2.255,0,0,1,1.7,4.526a2.431,2.431,0,0,1,.283-1.7,1.8,1.8,0,0,1,1.271-.989,2.363,2.363,0,0,1,1.7.141h.141A3.23,3.23,0,0,1,6.08,3.4,2.07,2.07,0,0,1,5.8,4.95v.141a2.123,2.123,0,0,1-1.271.989A2.363,2.363,0,0,1,2.831,5.939ZM1.984,7.352a3.665,3.665,0,0,0,2.967.283,3.4,3.4,0,0,0,2.26-1.7L7.352,5.8a4.02,4.02,0,0,0,.283-2.825A3.874,3.874,0,0,0,5.8.571V.43A4.341,4.341,0,0,0,2.831.147,3.874,3.874,0,0,0,.43,1.984,4.341,4.341,0,0,0,.147,4.95a3.874,3.874,0,0,0,1.837,2.4l.424-.706Z" transform="translate(37.714 5.499)"/>
  </g>
</svg>
