<svg xmlns="http://www.w3.org/2000/svg" width="68.61" height="71.337" viewBox="0 0 68.61 71.337">
  <path id="_004-abierto" data-name="004-abierto" d="M1.765,18.683,9.076,23.69,1.811,28.726a1.1,1.1,0,0,0,.005,1.809L9.6,35.865v16.89a1.1,1.1,0,0,0,.483.91L34.405,70.119a1.033,1.033,0,0,0,.122.058c.037.019.073.038.112.054a.983.983,0,0,0,.762,0,.875.875,0,0,0,.112-.054,1.242,1.242,0,0,0,.122-.058L59.961,53.665a1.1,1.1,0,0,0,.483-.91V35.931l7.98-5.532a1.1,1.1,0,0,0-.005-1.809l-7.31-5.007,7.265-5.036a1.1,1.1,0,0,0-.005-1.809L44.215.192a1.1,1.1,0,0,0-1.247,0L35.016,5.708l-8-5.481a1.1,1.1,0,0,0-1.247,0L1.759,16.874a1.1,1.1,0,0,0,.005,1.809Zm9.25,6.336L33.228,40.235,26.585,44.84,4.373,29.624Zm.779,12.351,14.175,9.71a1.094,1.094,0,0,0,.621.192,1.107,1.107,0,0,0,.626-.2l6.707-4.649V67.141L11.794,52.173Zm46.454,14.8L36.119,67.14V42.215l7.051,4.829a1.094,1.094,0,0,0,.621.192,1.107,1.107,0,0,0,.626-.2l13.831-9.588ZM65.862,29.5,43.786,44.8,37.1,40.225l9.182-6.365a1.1,1.1,0,0,0-1.252-1.806L35.16,38.9,12.947,23.681l22.077-15.3L57.237,23.593,48.2,29.858a1.1,1.1,0,0,0,1.252,1.806l9.726-6.742ZM43.6,2.432,65.811,17.648l-6.643,4.6L36.956,7.037Zm-17.2.036,6.686,4.58-22.077,15.3-6.686-4.58Z" transform="translate(-0.787 0.53)" stroke="#fff" stroke-width="1"/>
</svg>
