<svg xmlns="http://www.w3.org/2000/svg" width="61.458" height="65.307" viewBox="0 0 61.458 65.307">
  <g id="Layer_26" transform="translate(-121.723 -80.247)">
    <g id="Grupo_12418" data-name="Grupo 12418" transform="translate(121.977 80.497)">
      <g id="Grupo_12386" data-name="Grupo 12386" transform="translate(23.966 58.53)">
        <g id="Grupo_12385" data-name="Grupo 12385">
          <g id="Grupo_12384" data-name="Grupo 12384">
            <path id="Trazado_1868" data-name="Trazado 1868" d="M646.328,1337.2h-9.561a1.12,1.12,0,1,1,0-2.24h9.561a1.12,1.12,0,1,1,0,2.24Z" transform="translate(-635.647 -1334.963)" stroke="#fff" stroke-width="0.5"/>
          </g>
        </g>
      </g>
      <g id="Grupo_12393" data-name="Grupo 12393" transform="translate(21.718 54.492)">
        <g id="Grupo_12389" data-name="Grupo 12389">
          <g id="Grupo_12388" data-name="Grupo 12388">
            <g id="Grupo_12387" data-name="Grupo 12387">
              <path id="Trazado_1869" data-name="Trazado 1869" d="M602.627,1250.662H588.568a1.12,1.12,0,1,1,0-2.24h14.059a1.12,1.12,0,1,1,0,2.24Z" transform="translate(-587.448 -1248.423)" stroke="#fff" stroke-width="0.5"/>
            </g>
          </g>
        </g>
        <g id="Grupo_12392" data-name="Grupo 12392" transform="translate(3.93 8.075)">
          <g id="Grupo_12391" data-name="Grupo 12391">
            <g id="Grupo_12390" data-name="Grupo 12390">
              <path id="Trazado_1870" data-name="Trazado 1870" d="M679.006,1423.743h-6.2a1.12,1.12,0,1,1,0-2.24h6.2a1.12,1.12,0,1,1,0,2.24Z" transform="translate(-671.688 -1421.503)" stroke="#fff" stroke-width="0.5"/>
            </g>
          </g>
        </g>
      </g>
      <g id="Grupo_12396" data-name="Grupo 12396" transform="translate(28.747)">
        <g id="Grupo_12395" data-name="Grupo 12395">
          <g id="Grupo_12394" data-name="Grupo 12394">
            <path id="Trazado_1871" data-name="Trazado 1871" d="M739.228,90.49a1.12,1.12,0,0,1-1.12-1.12V81.617a1.12,1.12,0,1,1,2.24,0V89.37A1.12,1.12,0,0,1,739.228,90.49Z" transform="translate(-738.108 -80.497)" stroke="#fff" stroke-width="0.5"/>
          </g>
        </g>
      </g>
      <g id="Grupo_12399" data-name="Grupo 12399" transform="translate(10.499 6.539)">
        <g id="Grupo_12398" data-name="Grupo 12398">
          <g id="Grupo_12397" data-name="Grupo 12397">
            <path id="Trazado_1872" data-name="Trazado 1872" d="M352.843,229.028a1.118,1.118,0,0,1-.889-.438l-4.719-6.152a1.12,1.12,0,0,1,1.777-1.363l4.719,6.152a1.12,1.12,0,0,1-.888,1.8Z" transform="translate(-347.003 -220.637)" stroke="#fff" stroke-width="0.5"/>
          </g>
        </g>
      </g>
      <g id="Grupo_12402" data-name="Grupo 12402" transform="translate(0 22.833)">
        <g id="Grupo_12401" data-name="Grupo 12401">
          <g id="Grupo_12400" data-name="Grupo 12400">
            <path id="Trazado_1873" data-name="Trazado 1873" d="M130.586,574.119a1.119,1.119,0,0,1-.291-.039l-7.489-2.009a1.12,1.12,0,1,1,.58-2.163l7.489,2.009a1.12,1.12,0,0,1-.289,2.2Z" transform="translate(-121.977 -569.87)" stroke="#fff" stroke-width="0.5"/>
          </g>
        </g>
      </g>
      <g id="Grupo_12405" data-name="Grupo 12405" transform="translate(1.587 39.187)">
        <g id="Grupo_12404" data-name="Grupo 12404">
          <g id="Grupo_12403" data-name="Grupo 12403">
            <path id="Trazado_1874" data-name="Trazado 1874" d="M157.117,925.6a1.12,1.12,0,0,1-.429-2.155l7.165-2.964a1.12,1.12,0,1,1,.856,2.069l-7.165,2.964a1.116,1.116,0,0,1-.428.085Z" transform="translate(-155.997 -920.4)" stroke="#fff" stroke-width="0.5"/>
          </g>
        </g>
      </g>
      <g id="Grupo_12408" data-name="Grupo 12408" transform="translate(49.85 38.933)">
        <g id="Grupo_12407" data-name="Grupo 12407">
          <g id="Grupo_12406" data-name="Grupo 12406">
            <path id="Trazado_1875" data-name="Trazado 1875" d="M1198.593,920.41a1.116,1.116,0,0,1-.464-.1l-7.055-3.216a1.12,1.12,0,1,1,.929-2.038l7.055,3.216a1.12,1.12,0,0,1-.465,2.139Z" transform="translate(-1190.418 -914.954)" stroke="#fff" stroke-width="0.5"/>
          </g>
        </g>
      </g>
      <g id="Grupo_12411" data-name="Grupo 12411" transform="translate(51.1 23.566)">
        <g id="Grupo_12410" data-name="Grupo 12410">
          <g id="Grupo_12409" data-name="Grupo 12409">
            <path id="Trazado_1876" data-name="Trazado 1876" d="M1218.321,589.377a1.12,1.12,0,0,1-.223-2.217l7.6-1.554a1.12,1.12,0,1,1,.449,2.194l-7.6,1.554A1.123,1.123,0,0,1,1218.321,589.377Z" transform="translate(-1217.202 -585.583)" stroke="#fff" stroke-width="0.5"/>
          </g>
        </g>
      </g>
      <g id="Grupo_12414" data-name="Grupo 12414" transform="translate(43.979 7.489)">
        <g id="Grupo_12413" data-name="Grupo 12413">
          <g id="Grupo_12412" data-name="Grupo 12412">
            <path id="Trazado_1877" data-name="Trazado 1877" d="M1065.692,248.984a1.12,1.12,0,0,1-.827-1.875l5.226-5.728a1.12,1.12,0,0,1,1.654,1.51l-5.226,5.728A1.117,1.117,0,0,1,1065.692,248.984Z" transform="translate(-1064.573 -241.017)" stroke="#fff" stroke-width="0.5"/>
          </g>
        </g>
      </g>
      <g id="Grupo_12417" data-name="Grupo 12417" transform="translate(13.777 14.455)">
        <g id="Grupo_12416" data-name="Grupo 12416">
          <g id="Grupo_12415" data-name="Grupo 12415">
            <path id="Trazado_1878" data-name="Trazado 1878" d="M439.812,428.507h-12.8a1.12,1.12,0,0,1-1.12-1.127,12.84,12.84,0,0,0-1.564-6.5,12.291,12.291,0,0,0-1.873-2.548c-.151-.173-.315-.36-.495-.569a16.089,16.089,0,1,1,24.2-1.595c-.263.344-1.024,1.246-1.7,2.042-.406.481-.79.936-.924,1.1a10.343,10.343,0,0,0-1.036,1.566,12.84,12.84,0,0,0-1.565,6.5,1.12,1.12,0,0,1-1.12,1.126Zm-11.71-2.24h10.617a14.654,14.654,0,0,1,1.822-6.482,12.668,12.668,0,0,1,1.245-1.877c.151-.189.526-.632.959-1.146.623-.738,1.4-1.656,1.627-1.957a13.722,13.722,0,0,0,2.836-8.4,13.85,13.85,0,1,0-23.638,9.8q.029.029.056.06c.188.217.357.412.513.59a14.493,14.493,0,0,1,2.142,2.93A14.653,14.653,0,0,1,428.1,426.267Z" transform="translate(-417.269 -390.319)" stroke="#fff" stroke-width="0.5"/>
          </g>
        </g>
      </g>
    </g>
  </g>
</svg>
