<svg id="_002-descargar" data-name="002-descargar" xmlns="http://www.w3.org/2000/svg" width="55.371" height="44.152" viewBox="0 0 55.371 44.152">
  <path id="Trazado_1906" data-name="Trazado 1906" d="M21.357,31.824H17.94a7.613,7.613,0,0,0,0,15.227H30.958a1,1,0,1,1,0,1.993H17.94a9.607,9.607,0,0,1,0-19.213h1.793a15.971,15.971,0,0,1,30.149-3.415,11.441,11.441,0,0,1,8.268,21A9.562,9.562,0,0,1,52.8,49.044H41.08a1,1,0,0,1,0-1.993H52.8a7.569,7.569,0,0,0,4.24-1.289l.042-.028.043-.026A9.449,9.449,0,0,0,50.3,28.365l-1.559.33-.666-1.448a13.978,13.978,0,0,0-26.386,2.986Z" transform="translate(-8.334 -17.111)"/>
  <path id="Trazado_1907" data-name="Trazado 1907" d="M44.856,42.908V66.829l-5.8-5.8a1,1,0,0,0-1.41,1.41L44.112,68.9a2.326,2.326,0,0,0,3.289,0l6.468-6.468a1,1,0,1,0-1.41-1.41l-5.61,5.609V42.908a1,1,0,1,0-1.993,0Z" transform="translate(-18.07 -25.433)"/>
</svg>
