<svg id="Componente_267_4" data-name="Componente 267 – 4" xmlns="http://www.w3.org/2000/svg" width="18.04" height="18.041" viewBox="0 0 18.04 18.041">
  <g id="Grupo_11877" data-name="Grupo 11877">
    <g id="Grupo_11876" data-name="Grupo 11876">
      <path id="Trazado_1015" data-name="Trazado 1015" d="M9.02,0a9.021,9.021,0,1,0,9.02,9.021A9.015,9.015,0,0,0,9.02,0Zm0,16.632a7.611,7.611,0,1,1,7.611-7.611A7.607,7.607,0,0,1,9.02,16.632Z"/>
    </g>
  </g>
  <g id="Grupo_11879" data-name="Grupo 11879" transform="translate(8.314 7.553)">
    <g id="Grupo_11878" data-name="Grupo 11878">
      <path id="Trazado_1016" data-name="Trazado 1016" d="M236.7,214.33a.7.7,0,0,0-.7.7v4.538a.7.7,0,1,0,1.409,0v-4.538A.7.7,0,0,0,236.7,214.33Z" transform="translate(-236 -214.33)"/>
    </g>
  </g>
  <g id="Grupo_11881" data-name="Grupo 11881" transform="translate(8.068 4.787)">
    <g id="Grupo_11880" data-name="Grupo 11880">
      <ellipse id="Elipse_12" data-name="Elipse 12" cx="0.951" cy="0.951" rx="0.951" ry="0.951"/>
    </g>
  </g>
</svg>
