<svg id="Grupo_113" data-name="Grupo 113" xmlns="http://www.w3.org/2000/svg" width="19.572" height="19.806" viewBox="0 0 19.572 19.806">
  <g id="Grupo_99" data-name="Grupo 99" transform="translate(4.767 4.817)">
    <path id="Trazado_90" data-name="Trazado 90" d="M0,0A5.052,5.052,0,0,0-5.021,5.082,5.052,5.052,0,0,0,0,10.164,5.052,5.052,0,0,0,5.023,5.082,5.052,5.052,0,0,0,0,0M0,8.38a3.278,3.278,0,0,1-3.259-3.3A3.279,3.279,0,0,1,0,1.783a3.279,3.279,0,0,1,3.259,3.3A3.277,3.277,0,0,1,0,8.38" transform="translate(5.021)" fill="#575757"/>
  </g>
  <g id="Grupo_100" data-name="Grupo 100" transform="translate(0 0)">
    <path id="Trazado_91" data-name="Trazado 91" d="M0,0C-1.8-.085-6.259-.081-8.061,0a5.808,5.808,0,0,0-4.107,1.6c-1.882,1.9-1.641,4.471-1.641,8.234,0,3.853-.212,6.36,1.641,8.235,1.889,1.911,4.463,1.661,8.138,1.661,3.771,0,5.072,0,6.406-.52,1.812-.712,3.18-2.351,3.315-5.3.085-1.823.08-6.336,0-8.159C5.53,2.28,3.686.172,0,0m2.85,16.812c-1.234,1.249-2.945,1.137-6.906,1.137-4.078,0-5.713.061-6.906-1.149-1.374-1.384-1.125-3.607-1.125-6.976,0-4.56-.462-7.843,4.06-8.077,1.039-.037,1.345-.05,3.961-.05l.036.025c4.347,0,7.756-.46,7.96,4.115.047,1.044.057,1.357.057,4,0,4.079.076,5.743-1.136,6.976" transform="translate(13.819 0.062)" fill="#575757"/>
  </g>
  <g id="Grupo_101" data-name="Grupo 101" transform="translate(13.837 3.429)">
    <path id="Trazado_92" data-name="Trazado 92" d="M0,0A1.18,1.18,0,0,1,1.173,1.187,1.181,1.181,0,0,1,0,2.375,1.181,1.181,0,0,1-1.173,1.187,1.18,1.18,0,0,1,0,0" transform="translate(1.173)" fill="#575757"/>
  </g>
</svg>
