<svg xmlns="http://www.w3.org/2000/svg"  viewBox="0 0 19.965 25.068">
  <g id="surface1" transform="translate(0.25 0.25)">
    <path id="Trazado_1670" data-name="Trazado 1670" d="M13.74.19A.594.594,0,0,0,13.312,0H3.728A3.242,3.242,0,0,0,.5,3.222V21.346a3.242,3.242,0,0,0,3.228,3.223H16.737a3.242,3.242,0,0,0,3.228-3.223V6.955a.639.639,0,0,0-.172-.415Zm.172,1.9L17.965,6.35H15.33a1.413,1.413,0,0,1-1.418-1.412Zm2.825,21.287H3.728a2.056,2.056,0,0,1-2.041-2.036V3.222A2.056,2.056,0,0,1,3.728,1.187h9V4.937a2.6,2.6,0,0,0,2.605,2.6h3.448V21.346A2.052,2.052,0,0,1,16.737,23.382Zm0,0" transform="translate(-0.5)" fill="#5d5c5c" stroke="#e9ecee" stroke-width="0.5"/>
    <path id="Trazado_1671" data-name="Trazado 1671" d="M99.533,401.934H89.765a.593.593,0,0,0,0,1.187h9.774a.593.593,0,1,0-.006-1.187Zm0,0" transform="translate(-84.917 -382.647)" fill="#5d5c5c" stroke="#e9ecee" stroke-width="0.5"/>
    <path id="Trazado_1672" data-name="Trazado 1672" d="M122.259,179.282a.589.589,0,0,0,.866,0l3.478-3.733a.592.592,0,1,0-.866-.807l-2.451,2.629v-6.48a.593.593,0,1,0-1.187,0v6.48l-2.445-2.629a.592.592,0,1,0-.866.807Zm0,0" transform="translate(-112.959 -162.125)" fill="#5d5c5c" stroke="#e9ecee" stroke-width="0.5"/>
  </g>
</svg>
