<svg xmlns="http://www.w3.org/2000/svg" width="20.6" height="31.246" viewBox="0 0 20.6 31.246">
  <g id="Grupo_12666" data-name="Grupo 12666" transform="translate(-60 -1008.428)">
    <path id="Unión_4" data-name="Unión 4" d="M9.792,30.992C9.4,30.453,0,17.719,0,10.292a10.3,10.3,0,0,1,20.6,0c0,7.426-9.4,20.161-9.8,20.7a.631.631,0,0,1-.5.254A.623.623,0,0,1,9.792,30.992Z" transform="translate(60 1008.428)"/>
    <g id="Grupo_12664" data-name="Grupo 12664" transform="translate(63.438 1015.182)">
      <path id="Trazado_1578" data-name="Trazado 1578" d="M17.1,22.38a1.064,1.064,0,0,0-1.962,0L12.619,28.7a.448.448,0,0,0,.009.355.469.469,0,0,0,.266.245.489.489,0,0,0,.367-.009.467.467,0,0,0,.253-.257l2.517-6.323a.094.094,0,0,1,.173,0l2.517,6.323a.486.486,0,0,0,.62.266.469.469,0,0,0,.266-.245.448.448,0,0,0,.009-.355Z" transform="translate(-12.586 -21.728)" fill="#fff" stroke="#fff" stroke-width="0.5"/>
      <path id="Trazado_1579" data-name="Trazado 1579" d="M36.393,28.683a1.064,1.064,0,0,0,1.962,0l2.517-6.323A.448.448,0,0,0,40.863,22a.469.469,0,0,0-.266-.245.487.487,0,0,0-.367.009.468.468,0,0,0-.253.258L37.46,28.349a.094.094,0,0,1-.173,0L34.77,22.026a.486.486,0,0,0-.62-.266.469.469,0,0,0-.266.245.447.447,0,0,0-.009.355Z" transform="translate(-27.181 -21.728)" fill="#fff" stroke="#fff" stroke-width="0.5"/>
    </g>
  </g>
</svg>
