<svg xmlns="http://www.w3.org/2000/svg" xmlns:xlink="http://www.w3.org/1999/xlink" width="202.095" height="72.228" viewBox="0 0 202.095 72.228">
  <defs>
    <clipPath id="clip-path">
      <rect id="Rectángulo_5637" data-name="Rectángulo 5637" width="202.095" height="72.228" fill="none"/>
    </clipPath>
    <clipPath id="clip-path-2">
      <path id="Trazado_2384" data-name="Trazado 2384" d="M17.523,29.766l1.16,2.3s6.593-3.946,10.085-7.765a11.376,11.376,0,0,1-1.7-.585,13.785,13.785,0,0,1-1.842-1.088Z" transform="translate(-17.523 -22.63)" fill="none"/>
    </clipPath>
    <linearGradient id="linear-gradient" x1="-4.266" y1="1.456" x2="-4.026" y2="1.456" gradientUnits="objectBoundingBox">
      <stop offset="0" stop-color="#95c11f"/>
      <stop offset="0.479" stop-color="#95c11f"/>
      <stop offset="1" stop-color="#95c11f"/>
    </linearGradient>
    <clipPath id="clip-path-3">
      <path id="Trazado_2385" data-name="Trazado 2385" d="M13.882,24.548c-10.615,9.8-3.148,22.574,4.461,25.516,6.558,2.526,18.284.042,19.791-10.754,1.752-12.494-2.3-34.347-2.3-34.347S23.406,15.74,13.882,24.548" transform="translate(-8.61 -4.963)" fill="none"/>
    </clipPath>
    <linearGradient id="linear-gradient-2" x1="-0.095" y1="1.204" x2="1.277" y2="1.243" gradientUnits="objectBoundingBox">
      <stop offset="0" stop-color="#36a9e1"/>
      <stop offset="0.018" stop-color="#36a9e1"/>
      <stop offset="0.161" stop-color="#39aae1"/>
      <stop offset="0.296" stop-color="#45afe3"/>
      <stop offset="0.427" stop-color="#58b7e6"/>
      <stop offset="0.556" stop-color="#72c3ea"/>
      <stop offset="0.684" stop-color="#95d1ef"/>
      <stop offset="0.811" stop-color="#bfe3f5"/>
      <stop offset="0.934" stop-color="#f0f8fc"/>
      <stop offset="0.967" stop-color="#fff"/>
      <stop offset="1" stop-color="#fff"/>
    </linearGradient>
    <clipPath id="clip-path-4">
      <path id="Trazado_2386" data-name="Trazado 2386" d="M22.88,24.711C13.571,33.465,18.424,44.4,24.957,48.8a34.432,34.432,0,0,0,7.616-11c1.705-3.9,4.325-11.865,4.325-11.865s.349,7.081-1.708,12.735a37.093,37.093,0,0,1-6.7,11.8c6.689,1.923,17.419-.895,18.77-11.218,1.641-12.511-2.6-34.325-2.6-34.325S32.323,15.816,22.88,24.711" transform="translate(-17.708 -4.93)" fill="none"/>
    </clipPath>
    <linearGradient id="linear-gradient-3" x1="0.116" y1="0.562" x2="0.954" y2="0.551" gradientUnits="objectBoundingBox">
      <stop offset="0" stop-color="#95c11f"/>
      <stop offset="0" stop-color="#dedc00"/>
      <stop offset="0.011" stop-color="#c2d10b"/>
      <stop offset="1" stop-color="#dedc00"/>
    </linearGradient>
  </defs>
  <g id="Grupo_12867" data-name="Grupo 12867" transform="translate(0.001)">
    <path id="Trazado_2368" data-name="Trazado 2368" d="M33.654,21.459V8.71h8.4v2.221H36.144v2.992h5.031v2.221H36.144v3.1h5.906v2.221Z" transform="translate(49.755 12.878)" fill="#604b3f"/>
    <path id="Trazado_2369" data-name="Trazado 2369" d="M45.627,21.459l-5.049-7.825v7.825H38.09V8.71h2.221l5.051,7.807V8.71h2.486V21.459Z" transform="translate(56.314 12.878)" fill="#604b3f"/>
    <path id="Trazado_2370" data-name="Trazado 2370" d="M43.292,21.459V8.71h8.4v2.221H45.781v2.992H50.81v2.221H45.781v3.1h5.911v2.221Z" transform="translate(64.006 12.878)" fill="#604b3f"/>
    <g id="Grupo_12858" data-name="Grupo 12858" transform="translate(-0.001 0)">
      <g id="Grupo_12857" data-name="Grupo 12857" clip-path="url(#clip-path)">
        <path id="Trazado_2371" data-name="Trazado 2371" d="M52.562,10.931H50.217V14.3h2.345a1.687,1.687,0,1,0,0-3.366M54.5,21.459l-2.491-5.086H50.217v5.086H47.729V8.71h5a3.855,3.855,0,0,1,4.134,3.906,3.431,3.431,0,0,1-2.327,3.346l2.848,5.5Z" transform="translate(70.566 12.878)" fill="#604b3f"/>
        <path id="Trazado_2372" data-name="Trazado 2372" d="M60.634,20.18a5.061,5.061,0,0,1-7.036.055c-1.289-1.291-1.252-2.882-1.252-5.086s-.037-3.8,1.252-5.086a4.638,4.638,0,0,1,3.438-1.4,4.586,4.586,0,0,1,4.8,4.082H59.328a2.166,2.166,0,0,0-2.293-1.864,2.066,2.066,0,0,0-1.591.682c-.483.538-.612,1.128-.612,3.581s.129,3.061.612,3.6a2.054,2.054,0,0,0,1.591.662,2.333,2.333,0,0,0,1.772-.716,2.443,2.443,0,0,0,.573-1.7v-.483H57.035V14.432h4.816v1.861c0,1.844-.32,2.954-1.217,3.886" transform="translate(77.392 12.815)" fill="#604b3f"/>
        <path id="Trazado_2373" data-name="Trazado 2373" d="M62.918,16.23v5.227H60.447V16.23L56.615,8.71h2.7L61.7,13.848,64.046,8.71h2.7Z" transform="translate(83.704 12.879)" fill="#604b3f"/>
        <path id="Trazado_2374" data-name="Trazado 2374" d="M41.963,26.773a3.51,3.51,0,0,1-.292,1.445,2.978,2.978,0,0,1-.848,1.12,3.97,3.97,0,0,1-1.363.709,6.075,6.075,0,0,1-1.789.25,7.47,7.47,0,0,1-1.661-.176,4.877,4.877,0,0,1-1.383-.55,6.341,6.341,0,0,1-1.2-.954l.682-.682a6.314,6.314,0,0,0,1.108.9,3.662,3.662,0,0,0,1.145.463,6.371,6.371,0,0,0,1.361.136,4.426,4.426,0,0,0,1.74-.312,2.411,2.411,0,0,0,1.537-2.32,2.261,2.261,0,0,0-.7-1.792,2.232,2.232,0,0,0-.714-.426,6.43,6.43,0,0,0-1.125-.258L36.966,24.1a4.366,4.366,0,0,1-2.27-.932,2.9,2.9,0,0,1-1-2.345,3.581,3.581,0,0,1,.285-1.457,3.108,3.108,0,0,1,.788-1.1,3.5,3.5,0,0,1,1.249-.691,5.265,5.265,0,0,1,1.633-.24,5.5,5.5,0,0,1,2,.327,5.883,5.883,0,0,1,1.67,1.046l-.632.63a5,5,0,0,0-1.358-.892,4.521,4.521,0,0,0-1.732-.29,3.109,3.109,0,0,0-2.166.711,2.453,2.453,0,0,0-.788,1.923,2.043,2.043,0,0,0,.657,1.661,3.483,3.483,0,0,0,.877.5,4.242,4.242,0,0,0,1.026.285l1.371.218a7.119,7.119,0,0,1,1.383.315,3.1,3.1,0,0,1,1.72,1.6,3.345,3.345,0,0,1,.285,1.4" transform="translate(49.414 25.633)" fill="#604b3f"/>
        <path id="Trazado_2375" data-name="Trazado 2375" d="M45.261,26.166l-2.677-7.5-2.667,7.5Zm2.446,3.961H46.669l-1.11-3.106H39.61l-1.1,3.106H37.469L42.156,17.38h.865Z" transform="translate(55.397 25.697)" fill="#604b3f"/>
        <path id="Trazado_2376" data-name="Trazado 2376" d="M51.052,17.38,46.866,30.127h-.823l-4.2-12.747h1.024l3.586,11.044L50.028,17.38Z" transform="translate(61.866 25.697)" fill="#604b3f"/>
        <rect id="Rectángulo_5636" data-name="Rectángulo 5636" width="0.969" height="12.747" transform="translate(115.234 43.079)" fill="#604b3f"/>
        <path id="Trazado_2377" data-name="Trazado 2377" d="M57.831,30.127h-.969L49.508,19.041V30.127h-.972V17.38h.972l7.354,11.042V17.38h.969Z" transform="translate(71.761 25.697)" fill="#604b3f"/>
        <path id="Trazado_2378" data-name="Trazado 2378" d="M62.492,25.749a4.193,4.193,0,0,1-2.538,4.164,4.584,4.584,0,0,1-1.844.382,4.525,4.525,0,0,1-1.74-.34,4.436,4.436,0,0,1-1.452-.962,3.529,3.529,0,0,1-.813-1.2,5.013,5.013,0,0,1-.3-1.442c-.042-.543-.062-1.385-.062-2.536s.02-2,.062-2.533a5.031,5.031,0,0,1,.3-1.442,3.529,3.529,0,0,1,.813-1.2,4.332,4.332,0,0,1,1.447-.959,4.416,4.416,0,0,1,1.742-.345,4.531,4.531,0,0,1,2.045.434A6.7,6.7,0,0,1,61.9,19.1l-.652.647a6.508,6.508,0,0,0-1.48-1.185,3.485,3.485,0,0,0-1.663-.369,3.436,3.436,0,0,0-1.306.245,3.126,3.126,0,0,0-1.113.731,2.93,2.93,0,0,0-.528.706,3.4,3.4,0,0,0-.292.929,8.169,8.169,0,0,0-.131,1.276q-.026.718-.027,1.73c0,1.011.02,1.777.062,2.307a4.831,4.831,0,0,0,.27,1.338,2.75,2.75,0,0,0,.647.986,3.24,3.24,0,0,0,1.093.734,3.557,3.557,0,0,0,1.326.258,3.5,3.5,0,0,0,1.462-.32,3.33,3.33,0,0,0,1.182-.915,3.218,3.218,0,0,0,.59-1.1,4.96,4.96,0,0,0,.178-1.423V24.535H58.108v-.86h4.384Z" transform="translate(79.45 25.633)" fill="#604b3f"/>
        <path id="Trazado_2379" data-name="Trazado 2379" d="M68.358,28.7a6.576,6.576,0,0,1-1.68,1.195,4.417,4.417,0,0,1-1.913.4,4.516,4.516,0,0,1-1.74-.34,4.349,4.349,0,0,1-1.45-.962,3.506,3.506,0,0,1-.815-1.2,5.067,5.067,0,0,1-.3-1.445q-.063-.814-.062-2.536c0-1.148.02-2,.062-2.536a5.049,5.049,0,0,1,.3-1.442,3.46,3.46,0,0,1,.815-1.2,4.341,4.341,0,0,1,1.445-.962,4.506,4.506,0,0,1,1.745-.342,4.44,4.44,0,0,1,1.933.406,6.379,6.379,0,0,1,1.661,1.185l-.639.647a5.514,5.514,0,0,0-1.368-1.043,3.445,3.445,0,0,0-1.586-.337,3.563,3.563,0,0,0-1.321.248,3.147,3.147,0,0,0-1.1.731,2.834,2.834,0,0,0-.53.706,3.512,3.512,0,0,0-.292.929,9.068,9.068,0,0,0-.134,1.276c-.015.478-.022,1.053-.022,1.73q0,1.513.059,2.305a4.943,4.943,0,0,0,.27,1.341,2.822,2.822,0,0,0,.649.989,3.232,3.232,0,0,0,1.1.731,3.509,3.509,0,0,0,1.326.258,3.752,3.752,0,0,0,1.13-.164,3.237,3.237,0,0,0,.924-.449,8.56,8.56,0,0,0,.9-.771Z" transform="translate(89.288 25.633)" fill="#604b3f"/>
        <path id="Trazado_2380" data-name="Trazado 2380" d="M72.527,23.817c0-1.009-.02-1.78-.059-2.307a4.793,4.793,0,0,0-.27-1.343,2.879,2.879,0,0,0-.654-.991,3.23,3.23,0,0,0-1.105-.734,3.446,3.446,0,0,0-1.3-.248,3.5,3.5,0,0,0-1.309.248,3.157,3.157,0,0,0-1.11.734,2.834,2.834,0,0,0-.53.706,3.409,3.409,0,0,0-.29.927,8.455,8.455,0,0,0-.134,1.279q-.026.714-.025,1.73,0,1.513.059,2.3a4.845,4.845,0,0,0,.273,1.343,2.718,2.718,0,0,0,.647.986,3.226,3.226,0,0,0,1.105.736,3.5,3.5,0,0,0,1.314.255,3.439,3.439,0,0,0,1.309-.255,3.3,3.3,0,0,0,1.1-.736,2.832,2.832,0,0,0,.659-.994,4.971,4.971,0,0,0,.265-1.336q.059-.788.059-2.3m.972,0q0,1.721-.059,2.536a5.047,5.047,0,0,1-.307,1.442,3.518,3.518,0,0,1-.813,1.2,4.415,4.415,0,0,1-1.447.962,4.615,4.615,0,0,1-3.475,0,4.385,4.385,0,0,1-1.452-.962,3.517,3.517,0,0,1-.813-1.2,5.049,5.049,0,0,1-.3-1.442q-.063-.814-.062-2.536c0-1.148.02-2,.062-2.535a5.05,5.05,0,0,1,.3-1.442,3.517,3.517,0,0,1,.813-1.2,4.415,4.415,0,0,1,1.447-.962,4.64,4.64,0,0,1,3.485,0,4.42,4.42,0,0,1,1.442.962,3.518,3.518,0,0,1,.813,1.2,5.048,5.048,0,0,1,.307,1.442c.04.54.059,1.388.059,2.535" transform="translate(95.752 25.635)" fill="#604b3f"/>
        <path id="Trazado_2381" data-name="Trazado 2381" d="M78.224,17.38,74.037,30.127h-.823l-4.2-12.747H70.04l3.584,11.044L77.2,17.38Z" transform="translate(102.039 25.697)" fill="#604b3f"/>
        <path id="Trazado_2382" data-name="Trazado 2382" d="M81.4,30.127H73.665V17.38H81.4v.855H74.634v5.036H80.4v.858H74.634v5.143H81.4Z" transform="translate(108.912 25.697)" fill="#604b3f"/>
        <path id="Trazado_2383" data-name="Trazado 2383" d="M85.588,20.815a2.383,2.383,0,0,0-.766-1.923,3.022,3.022,0,0,0-2.042-.657H79.023V23.4H82.78a3.852,3.852,0,0,0,1.14-.161,2.47,2.47,0,0,0,.88-.478,2.147,2.147,0,0,0,.577-.806,2.871,2.871,0,0,0,.211-1.135m1.11,9.312H85.571L82.527,24.25h-3.5v5.877h-.972V17.38H82.9a4.291,4.291,0,0,1,1.884.4,3.049,3.049,0,0,1,1.3,1.17A3.52,3.52,0,0,1,86.56,20.8a3.392,3.392,0,0,1-.783,2.3,3.538,3.538,0,0,1-2.154,1.135Z" transform="translate(115.397 25.697)" fill="#604b3f"/>
      </g>
    </g>
    <g id="Grupo_12860" data-name="Grupo 12860" transform="translate(43.429 56.089)">
      <g id="Grupo_12859" data-name="Grupo 12859" clip-path="url(#clip-path-2)">
        <rect id="Rectángulo_5638" data-name="Rectángulo 5638" width="10.291" height="11.951" transform="translate(-0.738 9.38) rotate(-85.5)" fill="url(#linear-gradient)"/>
      </g>
    </g>
    <g id="Grupo_12862" data-name="Grupo 12862" transform="translate(21.339 12.301)">
      <g id="Grupo_12861" data-name="Grupo 12861" clip-path="url(#clip-path-3)">
        <rect id="Rectángulo_5639" data-name="Rectángulo 5639" width="57.616" height="51.31" transform="matrix(0.36, -0.933, 0.933, 0.36, -21.34, 41.454)" fill="url(#linear-gradient-2)"/>
      </g>
    </g>
    <g id="Grupo_12864" data-name="Grupo 12864" transform="translate(43.888 12.219)">
      <g id="Grupo_12863" data-name="Grupo 12863" clip-path="url(#clip-path-4)">
        <path id="Trazado_2390" data-name="Trazado 2390" d="M0,0H56.862V49.774H0Z" transform="matrix(0.352, -0.936, 0.936, 0.352, -19.77, 41.589)" fill="url(#linear-gradient-3)"/>
      </g>
    </g>
    <g id="Grupo_12866" data-name="Grupo 12866" transform="translate(-0.001 0)">
      <g id="Grupo_12865" data-name="Grupo 12865" clip-path="url(#clip-path)">
        <path id="Trazado_2387" data-name="Trazado 2387" d="M83.181,14.391A10.149,10.149,0,1,1,73.034,4.239,10.146,10.146,0,0,1,83.181,14.391" transform="translate(92.97 6.268)" fill="#95c11f"/>
        <path id="Trazado_2388" data-name="Trazado 2388" d="M68.928,14.2l-1.482-2.424-1.5,2.424H64.224l2.436-3.626L64.321,7.1h1.723l1.4,2.312L68.829,7.1h1.723l-2.325,3.475L70.648,14.2Z" transform="translate(94.954 10.494)" fill="#fff"/>
        <path id="Trazado_2389" data-name="Trazado 2389" d="M67.146,15.166V13.892l3.386-3.081a2.386,2.386,0,0,0,.969-1.7,1.371,1.371,0,0,0-1.445-1.4,1.406,1.406,0,0,0-1.467,1.467h-1.43a2.737,2.737,0,0,1,2.9-2.744A2.665,2.665,0,0,1,72.928,9.1a3.724,3.724,0,0,1-1.539,2.6l-2.312,2.184h4.077v1.274Z" transform="translate(99.274 9.525)" fill="#fff"/>
      </g>
    </g>
  </g>
</svg>
