<svg xmlns="http://www.w3.org/2000/svg" width="165.899" height="87.176" viewBox="0 0 165.899 87.176">
  <g id="Grupo_12834" data-name="Grupo 12834" transform="translate(-3665.687 -6316.272)">
    <path id="Trazado_2292" data-name="Trazado 2292" d="M275.595,93.78h-.963A20.481,20.481,0,1,0,295.118,73.3a20.477,20.477,0,0,0-20.486,20.48h1.925a18.55,18.55,0,1,1,5.435,13.126,18.5,18.5,0,0,1-5.435-13.126Z" transform="translate(3492.576 6250.61)" fill="#c4d0ec"/>
    <path id="Trazado_2293" data-name="Trazado 2293" d="M271.188,86.325h-.966a15.58,15.58,0,1,0,15.586-15.58,15.586,15.586,0,0,0-15.586,15.58h1.928a13.651,13.651,0,1,1,4,9.662,13.589,13.589,0,0,1-4-9.662Z" transform="translate(3483.802 6245.527)" fill="#98b1dd"/>
    <path id="Trazado_2294" data-name="Trazado 2294" d="M271.75,103.821h-.963A26.033,26.033,0,1,0,296.824,77.79a26.028,26.028,0,0,0-26.037,26.031h1.925a24.107,24.107,0,1,1,7.064,17.051,24.009,24.009,0,0,1-7.064-17.051Z" transform="translate(3484.927 6259.543)" fill="#006eb7"/>
    <path id="Trazado_2295" data-name="Trazado 2295" d="M240.671,103V83.585h2.35v2.242a5.322,5.322,0,0,1,4.556-2.532v2.711c-3.4.29-4.376,2.027-4.376,5.282V103Z" transform="translate(3425.016 6270.494)"/>
    <path id="Trazado_2296" data-name="Trazado 2296" d="M260.909,85.56c-3.689,0-6.58,2.457-7.2,6.58H268.43c-.942-4.338-3.471-6.58-7.521-6.58m-7.267,8.678a7.262,7.262,0,0,0,7.446,7.088,7.17,7.17,0,0,0,6.654-4.3h2.819c-1.809,4.338-5.169,6.687-9.4,6.687a10.148,10.148,0,0,1-10.086-10.268A9.863,9.863,0,0,1,261.268,83.21c5.752,0,9.91,4.341,9.91,10.845v.182Z" transform="translate(3445.717 6270.325)"/>
    <rect id="Rect치ngulo_5630" data-name="Rect치ngulo 5630" width="2.493" height="25.708" transform="translate(3742.868 6347.787)"/>
    <path id="Trazado_2297" data-name="Trazado 2297" d="M286.148,85.561a7.7,7.7,0,0,0-7.521,8.023,7.565,7.565,0,0,0,7.449,7.7c3.758,0,7.372-3.4,7.372-8.026a7.734,7.734,0,0,0-7.3-7.7M286,103.6a9.84,9.84,0,0,1-9.94-10.125,9.961,9.961,0,0,1,10.158-10.23,8.689,8.689,0,0,1,7.228,3.542V83.68h2.424V103.1h-2.424V100.02A9.032,9.032,0,0,1,286,103.6" transform="translate(3495.421 6270.398)"/>
    <path id="Trazado_2298" data-name="Trazado 2298" d="M298.98,90.731l4.846-7.339h2.858l-6.293,9.291,6.254,10.125h-2.819l-4.986-8.1-5.207,8.1h-2.75l6.583-10.089-5.787-9.327h2.786Z" transform="translate(3524.902 6270.688)"/>
    <rect id="Rect치ngulo_5631" data-name="Rect치ngulo 5631" width="2.069" height="8.289" transform="translate(3665.712 6395.045)"/>
    <path id="Trazado_2299" data-name="Trazado 2299" d="M251.492,97.1h1.8v8.289h-2.066v-5.178l-2.236,2.6h-.317l-2.236-2.6v5.178h-2.066V97.1h1.8l2.661,3.073Z" transform="translate(3432.375 6297.951)"/>
    <path id="Trazado_2300" data-name="Trazado 2300" d="M252.425,100.538h.96c.951,0,1.291-.341,1.291-.963,0-.7-.4-.96-1.522-.96h-.729Zm1.629-3.441a2.492,2.492,0,1,1,.012,4.959h-1.641v3.33h-2.066V97.1Z" transform="translate(3444.288 6297.951)"/>
    <path id="Trazado_2301" data-name="Trazado 2301" d="M259.186,99.079l-1.217,3.22h2.553Zm4.849,6.308H261.81l-.678-1.641h-3.71l-.619,1.641h-2.188l3.342-8.289h2.394Z" transform="translate(3452.755 6297.951)"/>
    <path id="Trazado_2302" data-name="Trazado 2302" d="M268.252,104.743a6.442,6.442,0,0,1-3.258.828c-3.222,0-4.825-2.093-4.825-4.233,0-2.212,1.811-4.278,4.983-4.278a5.848,5.848,0,0,1,3,.729v1.847a5.782,5.782,0,0,0-2.858-.852c-1.764,0-3,1.046-3,2.517a2.661,2.661,0,0,0,2.953,2.538,6.442,6.442,0,0,0,3-.909Z" transform="translate(3463.803 6297.878)"/>
    <path id="Trazado_2303" data-name="Trazado 2303" d="M273.659,98.615h-3v6.771h-2.069V98.615h-3V97.1h8.071Z" transform="translate(3474.584 6297.951)"/>
    <path id="Trazado_2304" data-name="Trazado 2304" d="M275.283,98.989a2.779,2.779,0,0,0-1.946-.858c-.762,0-1.312.395-1.312.981,0,1.6,3.59,1.566,3.59,4.209a2.221,2.221,0,0,1-2.326,2.248,3.639,3.639,0,0,1-2.32-.768v-1.507a2.8,2.8,0,0,0,2.188,1.2c.924,0,1.348-.583,1.348-1.046,0-1.713-3.584-1.907-3.584-4.185a2.226,2.226,0,0,1,2.514-2.206,3.319,3.319,0,0,1,1.848.583Z" transform="translate(3485.195 6297.879)"/>
    <path id="Trazado_2305" data-name="Trazado 2305" d="M280.892,97.1h1.432l-3.073,3.913v4.376h-1.193V101l-3.076-3.9h1.438l2.221,2.858Z" transform="translate(3493.272 6297.951)"/>
    <path id="Trazado_2306" data-name="Trazado 2306" d="M284.248,98.989a2.794,2.794,0,0,0-1.946-.858c-.768,0-1.312.395-1.312.981,0,1.6,3.584,1.566,3.584,4.209a2.217,2.217,0,0,1-2.32,2.248,3.644,3.644,0,0,1-2.326-.768v-1.507a2.8,2.8,0,0,0,2.188,1.2c.924,0,1.354-.583,1.354-1.046,0-1.713-3.59-1.907-3.59-4.185a2.23,2.23,0,0,1,2.52-2.206,3.319,3.319,0,0,1,1.847.583Z" transform="translate(3503.017 6297.879)"/>
    <path id="Trazado_2307" data-name="Trazado 2307" d="M290.937,98.167H288.07v7.219h-1.19V98.167h-2.87V97.1h6.926Z" transform="translate(3511.233 6297.95)"/>
    <path id="Trazado_2308" data-name="Trazado 2308" d="M293.766,98.167H290.25v2.505h3.39v1.067h-3.39v2.577h3.626v1.07h-4.813V97.1h4.7Z" transform="translate(3521.284 6297.95)"/>
    <path id="Trazado_2309" data-name="Trazado 2309" d="M301.18,105.386h-1.193V98.932h-.024l-2.553,3.211h-.194l-2.553-3.211h-.024v6.454h-1.19V97.1h1.118l2.744,3.4,2.759-3.4h1.109Z" transform="translate(3530.01 6297.951)"/>
  </g>
</svg>
