<svg xmlns="http://www.w3.org/2000/svg" width="189.34" height="81.516" viewBox="0 0 189.34 81.516">
  <g id="Grupo_12051" data-name="Grupo 12051" transform="translate(-826.831 -7086.192)">
    <path id="Trazado_1510" data-name="Trazado 1510" d="M101.7,107.022h3.527l4.423,13.756,4.56-13.8h2.75l4.56,13.8,4.427-13.756h3.416L122.9,125.7h-2.812l-4.556-13.321L110.977,125.7h-2.808Z" transform="translate(761.404 7015.321)" fill="#3c3c3b"/>
    <rect id="Rectángulo_5302" data-name="Rectángulo 5302" width="3.252" height="18.547" transform="translate(894.312 7122.346)" fill="#3c3c3b"/>
    <path id="Trazado_1511" data-name="Trazado 1511" d="M110.588,106.984h13.8v2.968H113.844v5.061H123.2v2.968h-9.355v7.55h-3.256Z" transform="translate(791.94 7015.359)" fill="#3c3c3b"/>
    <rect id="Rectángulo_5303" data-name="Rectángulo 5303" width="3.26" height="18.547" transform="translate(920.103 7122.346)" fill="#3c3c3b"/>
    <path id="Trazado_1512" data-name="Trazado 1512" d="M108.169,114.228H101.7v-1.269h14.306v1.269h-6.459V131.5h-1.38Z" transform="translate(761.404 7035.887)" fill="#3c3c3b"/>
    <path id="Trazado_1513" data-name="Trazado 1513" d="M117.27,121.145V121.1a5.676,5.676,0,0,0-5.563-5.864,5.581,5.581,0,0,0-5.514,5.811v.053a5.667,5.667,0,0,0,5.563,5.86,5.583,5.583,0,0,0,5.514-5.811m-12.478,0V121.1a6.941,6.941,0,1,1,13.88-.053v.053a6.982,6.982,0,0,1-6.964,7.075,6.906,6.906,0,0,1-6.916-7.027" transform="translate(772.025 7039.536)" fill="#3c3c3b"/>
    <path id="Trazado_1514" data-name="Trazado 1514" d="M108.765,122.357v-8.264h1.3v8.029c0,2.781,1.566,4.609,4.294,4.609a4.633,4.633,0,0,0,4.689-4.826v-7.812h1.3V127.6h-1.3v-2.515a5.286,5.286,0,0,1-4.875,2.839c-3.416,0-5.4-2.329-5.4-5.567" transform="translate(785.675 7039.783)" fill="#3c3c3b"/>
    <path id="Trazado_1515" data-name="Trazado 1515" d="M112.279,121.145V121.1a7.016,7.016,0,0,1,6.889-7.075,7.111,7.111,0,0,1,5.407,2.489l-.932.958a6.107,6.107,0,0,0-4.5-2.236,5.588,5.588,0,0,0-5.456,5.811v.053a5.684,5.684,0,0,0,5.563,5.86,6.063,6.063,0,0,0,4.529-2.253l.9.794a6.932,6.932,0,0,1-12.4-4.352" transform="translate(797.75 7039.536)" fill="#3c3c3b"/>
    <path id="Trazado_1516" data-name="Trazado 1516" d="M115.9,112.779h1.3v8.344a5.29,5.29,0,0,1,4.875-2.835c3.416,0,5.407,2.333,5.407,5.563v8.264h-1.3v-8.025c0-2.781-1.561-4.609-4.294-4.609A4.631,4.631,0,0,0,117.2,124.3v7.812h-1.3Z" transform="translate(810.194 7035.269)" fill="#3c3c3b"/>
    <path id="Trazado_1517" data-name="Trazado 1517" d="M127.89,123.312c3.442,0,5.776-1.8,5.776-4.556V118.7c0-2.937-2.28-4.476-5.616-4.476H122.8v9.085Zm-6.468-10.354h6.729c4.081,0,6.889,2.094,6.889,5.669v.053c0,3.89-3.362,5.909-7.235,5.909h-5V131.5h-1.38Z" transform="translate(829.165 7035.887)" fill="#3c3c3b"/>
    <path id="Trazado_1518" data-name="Trazado 1518" d="M135.454,122.713v-1.544a18.086,18.086,0,0,0-4.582-.6c-2.866,0-4.458,1.273-4.458,3.158v.044c0,1.965,1.859,3.105,3.926,3.105,2.759,0,5.115-1.7,5.115-4.161m-10.416,1.131V123.8c0-2.808,2.413-4.4,5.909-4.4a16.32,16.32,0,0,1,4.476.581V119.4c0-2.733-1.668-4.134-4.445-4.134a9.059,9.059,0,0,0-4.241,1.087l-.479-1.144a10.988,10.988,0,0,1,4.8-1.162,5.835,5.835,0,0,1,4.267,1.482,5.145,5.145,0,0,1,1.375,3.815v8.424h-1.273v-2.253a6.118,6.118,0,0,1-5.163,2.577c-2.52,0-5.221-1.433-5.221-4.245" transform="translate(841.589 7039.619)" fill="#3c3c3b"/>
    <path id="Trazado_1519" data-name="Trazado 1519" d="M128.72,114.341h1.3v2.515a5.28,5.28,0,0,1,4.871-2.835c3.42,0,5.408,2.333,5.408,5.563v8.26H139v-8.02c0-2.781-1.566-4.609-4.294-4.609a4.63,4.63,0,0,0-4.689,4.822v7.807h-1.3Z" transform="translate(854.24 7039.54)" fill="#3c3c3b"/>
    <path id="Trazado_1520" data-name="Trazado 1520" d="M143.384,120.462c-.182-2.733-1.752-5.248-4.849-5.248-2.675,0-4.742,2.253-4.982,5.248Zm-11.21.661v-.049c0-3.926,2.759-7.053,6.414-7.053,3.788,0,6.2,3.074,6.2,7.08a4.027,4.027,0,0,1-.022.528h-11.21a5.361,5.361,0,0,0,5.3,5.328,6.044,6.044,0,0,0,4.64-2.129l.9.8a7.1,7.1,0,0,1-5.594,2.546,6.72,6.72,0,0,1-6.623-7.049" transform="translate(866.108 7039.536)" fill="#3c3c3b"/>
    <rect id="Rectángulo_5304" data-name="Rectángulo 5304" width="1.295" height="19.336" transform="translate(1014.877 7148.047)" fill="#3c3c3b"/>
    <path id="Trazado_1521" data-name="Trazado 1521" d="M140.138,106.691a27.2,27.2,0,0,0-19.2-7.856h-.253a27.4,27.4,0,0,0,.253,54.806h.231a1.3,1.3,0,0,0-.013-2.608c-.075,0-.142,0-.217,0a24.8,24.8,0,0,1-.226-49.589c.08,0,.151,0,.226,0a24.784,24.784,0,0,1,24.784,24.584,1.3,1.3,0,0,0,1.3,1.3h.009a1.31,1.31,0,0,0,1.3-1.318,27.256,27.256,0,0,0-8.193-19.314" transform="translate(733.308 6987.357)" fill="#f39200"/>
    <path id="Trazado_1522" data-name="Trazado 1522" d="M114.2,100.8h-.169A18.7,18.7,0,0,0,101.1,132.855a18.521,18.521,0,0,0,13.059,5.341h.191a1.3,1.3,0,0,0-.009-2.608h-.013a16.092,16.092,0,0,1-.275-32.183h.146a16.113,16.113,0,0,1,16.089,15.952,1.3,1.3,0,0,0,1.3,1.291h.013a1.306,1.306,0,0,0,1.291-1.317A18.723,18.723,0,0,0,114.2,100.8" transform="translate(740.046 6994.095)" fill="#f39200"/>
    <path id="Trazado_1523" data-name="Trazado 1523" d="M107.43,102.753h-.062a10.012,10.012,0,0,0,.08,20.024h.093a1.3,1.3,0,0,0-.013-2.608h-.08a7.4,7.4,0,0,1-.049-14.807h.031a7.427,7.427,0,0,1,7.417,7.346,1.306,1.306,0,0,0,1.3,1.291h.013a1.3,1.3,0,0,0,1.3-1.313,10.045,10.045,0,0,0-10.03-9.932" transform="translate(746.777 7000.819)" fill="#f39200"/>
  </g>
</svg>
