<svg xmlns="http://www.w3.org/2000/svg" width="184.507" height="76.292" viewBox="0 0 184.507 76.292">
  <g id="Grupo_12833" data-name="Grupo 12833" transform="translate(-3654.302 -6573.815)">
    <path id="Trazado_2310" data-name="Trazado 2310" d="M314.7,176.744l.078-.021-.015.042-.072-.015Zm13.243,3.428c5.981-2.661,12.273-8.364,12.273-8.364s-7.948-2.99-14.587-3.155a9.932,9.932,0,0,0,.718-2.036c2.182-9.648-3.422-26.423-3.422-26.423s-11.665,11.929-14.276,21.733a11.762,11.762,0,0,0-1.021-.668c-9.519-5.262-28.95-4.493-28.95-4.493s9.408,16.715,19.194,22.134l.021.012a12.851,12.851,0,0,0-2.577,2.248c-8.409,9.654-12.336,32.189-12.336,32.189s21.571-6.675,30.219-16.6a13.348,13.348,0,0,0,2-3.047c6.367,7.705,21.035,14.288,21.035,14.288s-.91-17.626-6.756-26.091a10.4,10.4,0,0,0-1.533-1.724" transform="translate(3498.59 6433.621)" fill="#fff"/>
    <path id="Trazado_2311" data-name="Trazado 2311" d="M303.559,152.406h0l.072.018-.072-.018m-16.814,2.152a12.931,12.931,0,0,0-2.335,2,12.975,12.975,0,0,1,2.353-1.994l-.018-.009m-2.353,2.024-.048.051.048-.051m-.111.126-.015.012.015-.012m19.775,12.662a13.484,13.484,0,0,1-1.114,1.916,13.64,13.64,0,0,0,1.117-1.913l0,0" transform="translate(3509.726 6457.965)" fill="#75bfd5"/>
    <path id="Trazado_2312" data-name="Trazado 2312" d="M311.827,152.406c-.56.38-5.487,3.6-10.986,3.6a11.894,11.894,0,0,1-5.81-1.44,12.957,12.957,0,0,0-2.35,1.991l-.018.024-.051.051c-.021.024-.042.051-.063.072l-.015.015-.081.093C284.044,166.469,280.117,189,280.117,189s21.571-6.675,30.219-16.6a13.081,13.081,0,0,0,1.988-3.029c-.347-.422-.674-.85-.97-1.278-4.5-6.52.458-15.635.458-15.635a.738.738,0,0,1,.1-.015l-.015-.021Z" transform="translate(3501.454 6457.965)" fill="#75bfd5"/>
    <path id="Trazado_2313" data-name="Trazado 2313" d="M281.283,145.717h0Zm.554,0c5.876.033,18.461.581,25.621,4.457-7.16-3.876-19.745-4.424-25.621-4.457m-1.146,0h0m-.069,0h0m-.069,0-.051,0,.051,0m-.069,0h0m-.069,0h0m-.066,0h0m-.075,0h0m-.054,0h0m-.06,0h0m-.057,0-.033,0,.033,0m-.066,0h0m-.057,0h0m-.168,0h0m-.1,0H279.7m-.147,0h0m-.042,0h0m-.177,0h0m-.087,0h0m-.039,0h0Zm-.039,0h0m-.03,0h0m-.039,0h0m-.03,0h0m-.036,0h0m-.024,0h0m-.06,0-.015,0,.015,0m-.03,0h0m-.027,0h0m-.024,0h0m-.021,0h0m-.024,0h0m-.021,0h0m-.018,0h0m-.018,0h0m-.021,0-.006,0,.006,0m-.015,0h0m-.012,0h0m-.015,0h0m28.893,4.5h0a11.751,11.751,0,0,1,1,.65l0-.021a10.577,10.577,0,0,0-1.006-.629M297.84,167.89l.006,0Z" transform="translate(3498.625 6444.63)" fill="#75bfd5"/>
    <path id="Trazado_2314" data-name="Trazado 2314" d="M281.314,145.717h-.73l-.051,0h-.4l-.036,0h-.111c-.048,0-.1,0-.144,0h-.021l-.087,0h-.015c-.045,0-.09,0-.135,0h-.063l-.159,0h-.018l-.069,0h-.009l-.033,0h-.15l-.024,0h-.084l-.018,0h-.144l-.006,0h-.036l-.009,0h-.042l-.048,0s9.408,16.715,19.191,22.134l.009,0a19.114,19.114,0,0,1,10.627-2.811,29.282,29.282,0,0,1,6.131.647c-.452-.371-7.876-6.616-6.172-14.162.051-.219.1-.443.165-.665a11.711,11.711,0,0,0-1-.65c-.045-.027-.093-.054-.138-.078-7.163-3.876-19.748-4.427-25.624-4.457Z" transform="translate(3498.59 6444.63)" fill="#75bfd5"/>
    <path id="Trazado_2315" data-name="Trazado 2315" d="M290.72,152.4h0l-.006.006.009-.006" transform="translate(3522.573 6457.959)" fill="#75bfd5"/>
    <path id="Trazado_2316" data-name="Trazado 2316" d="M290.721,152.4l-.012.006h.006Z" transform="translate(3522.569 6457.959)" fill="#75bfd5"/>
    <path id="Trazado_2317" data-name="Trazado 2317" d="M301.908,152.4h0Zm-16.814,2.152h0l.015.009Z" transform="translate(3511.376 6457.962)" fill="#1facc8"/>
    <path id="Trazado_2318" data-name="Trazado 2318" d="M295.724,152.185A19.124,19.124,0,0,0,285.094,155l.015.009a11.862,11.862,0,0,0,5.81,1.44c5.5,0,10.426-3.218,10.986-3.6H301.9l-.027.006-.021-.018a29.269,29.269,0,0,0-6.128-.647" transform="translate(3511.376 6457.524)" fill="#1facc8"/>
    <path id="Trazado_2319" data-name="Trazado 2319" d="M302.978,140.194s-11.659,11.9-14.291,21.7l.024.015c2.619-9.8,14.267-21.712,14.267-21.712s3.933,11.779,3.928,21.272c.006-9.492-3.928-21.272-3.928-21.272m3.368,26.648a10.047,10.047,0,0,1-.662,1.8l.024,0a9.942,9.942,0,0,0,.638-1.8m-11.519,9.881-.069.018,0,0,.072-.021" transform="translate(3518.538 6433.621)" fill="#75bfd5"/>
    <path id="Trazado_2320" data-name="Trazado 2320" d="M302.962,140.194s-11.648,11.911-14.267,21.715c6.475,4.583,6.086,14.806,6.086,14.806l-.039.027.069-.018c.168-.578,2.078-6.819,7.241-7.822a15.974,15.974,0,0,1,3.047-.266c.189,0,.38,0,.569.006a10.292,10.292,0,0,0,.665-1.8l.054-.225a23.877,23.877,0,0,0,.5-5.152c.006-9.492-3.927-21.272-3.927-21.272" transform="translate(3518.554 6433.621)" fill="#75bfd5"/>
    <path id="Trazado_2321" data-name="Trazado 2321" d="M288.689,147.442l0,.021.021.015,0-.012a.042.042,0,0,0-.021-.024m6.071,14.851,0,0h0Z" transform="translate(3518.537 6448.069)" fill="#1facc8"/>
    <path id="Trazado_2322" data-name="Trazado 2322" d="M288.992,147.447l-.006.021-.021-.018c-.06.225-.114.446-.165.665-1.706,7.55,5.72,13.791,6.169,14.162l.051.012.012-.006h.006l.042-.027s.386-10.223-6.089-14.809" transform="translate(3518.258 6448.079)" fill="#1facc8"/>
    <path id="Trazado_2323" data-name="Trazado 2323" d="M290.692,152.4l.024.018.027-.006-.051-.012" transform="translate(3522.536 6457.955)" fill="#00a6c3"/>
    <path id="Trazado_2324" data-name="Trazado 2324" d="M303.658,153.548l-.021.012a10.853,10.853,0,0,1,1.464,1.631,10.263,10.263,0,0,0-1.443-1.643m-12.776,13.533,0,.009c6.28,7.594,20.616,14.084,21.026,14.27-.4-.183-14.746-6.684-21.023-14.279" transform="translate(3522.908 6460.241)" fill="#75bfd5"/>
    <path id="Trazado_2325" data-name="Trazado 2325" d="M290.8,152.485c.536,1.389,3.544,9.81.249,16.715,6.28,7.594,20.619,14.1,21.023,14.279l.009,0s-.907-17.622-6.756-26.088l-.057-.084a10.864,10.864,0,0,0-1.464-1.631,16.722,16.722,0,0,1-3.509,1.164,7.177,7.177,0,0,1-1.32.123c-4.089,0-7.382-3.547-8.175-4.481" transform="translate(3522.743 6458.122)" fill="#75bfd5"/>
    <path id="Trazado_2326" data-name="Trazado 2326" d="M290.883,158.068l-.006.015h0l.006-.012,0,0" transform="translate(3522.904 6469.252)" fill="#1facc8"/>
    <path id="Trazado_2327" data-name="Trazado 2327" d="M292.37,152.418a.641.641,0,0,0-.1.015s-4.96,9.115-.458,15.635c.3.428.62.856.97,1.278l0-.009.006,0c3.3-6.906.284-15.33-.252-16.716-.087-.1-.144-.171-.168-.2" transform="translate(3521.001 6457.988)" fill="#1facc8"/>
    <path id="Trazado_2328" data-name="Trazado 2328" d="M301.627,149.7l-.006.009c6.637.171,14.569,3.155,14.569,3.155s-7.93-2.991-14.563-3.164m14.563,3.164-.006,0,.006,0m-.006,0c-.18.162-6.358,5.724-12.246,8.349l.006.006c5.885-2.625,12.061-8.193,12.24-8.355m-25.435,4.912h0l-.012.042Z" transform="translate(3522.619 6452.566)" fill="#75bfd5"/>
    <path id="Trazado_2329" data-name="Trazado 2329" d="M301.621,149.7c-2.631,5.634-9.864,7.792-10.872,8.07l-.015.042.06.012a21.074,21.074,0,0,1,2.428-.135c2.853,0,7.478.527,10.714,3.517,5.888-2.625,12.07-8.187,12.249-8.349l0-.006s-7.933-2.984-14.566-3.152" transform="translate(3522.619 6452.573)" fill="#75bfd5"/>
    <path id="Trazado_2330" data-name="Trazado 2330" d="M290.734,152.411h0l.015.021.045-.006-.06-.015" transform="translate(3522.619 6457.975)" fill="#1facc8"/>
    <path id="Trazado_2331" data-name="Trazado 2331" d="M301.6,149.7l0,.012h.021l.006-.009-.024,0m-10.854,8.082h0Z" transform="translate(3522.626 6452.564)" fill="#1facc8"/>
    <path id="Trazado_2332" data-name="Trazado 2332" d="M301.026,149.694a15.969,15.969,0,0,0-3.047.266c-5.164,1-7.074,7.244-7.241,7.825h0c1.009-.278,8.244-2.44,10.872-8.07h-.021l0-.009c-.189-.009-.38-.012-.569-.012" transform="translate(3522.626 6452.558)" fill="#1facc8"/>
    <path id="Trazado_2333" data-name="Trazado 2333" d="M295.161,153.545l-.024.012.009.009.024-.012-.009-.009" transform="translate(3531.396 6460.235)" fill="#1facc8"/>
    <path id="Trazado_2334" data-name="Trazado 2334" d="M293.18,152.37a21.7,21.7,0,0,0-2.425.135l.042.015s.03.069.078.192c.8.937,4.092,4.487,8.178,4.487a7.161,7.161,0,0,0,1.32-.126,16.841,16.841,0,0,0,3.508-1.164l-.009-.009.024-.012c-3.239-2.987-7.864-3.517-10.717-3.517" transform="translate(3522.661 6457.894)" fill="#1facc8"/>
    <path id="Trazado_2335" data-name="Trazado 2335" d="M290.785,152.416l-.045.006c.024.033.081.1.168.2-.051-.129-.081-.195-.081-.195l-.042-.012" transform="translate(3522.631 6457.985)" fill="#00a6c3"/>
    <path id="Trazado_2336" data-name="Trazado 2336" d="M255.018,145.978l-5.936,18.664h12.171Zm-6.364,19.954-2.239,7.008h-1.374l8.6-26.962c.688-2.149.772-2.278,1.377-2.278s.644.129,1.506,2.538l8.945,26.7h-1.419l-2.323-7.008Z" transform="translate(3431.533 6440.609)" fill="#82368c"/>
    <path id="Trazado_2337" data-name="Trazado 2337" d="M259.2,148.568c-3.823.129-5.158,1.76-5.158,6.319v10.836h-1.332V154.759c0-3.484.688-5.245,2.535-6.451a6.678,6.678,0,0,1,3.954-.988Z" transform="translate(3446.824 6447.826)" fill="#82368c"/>
    <path id="Trazado_2338" data-name="Trazado 2338" d="M256.228,156.781a8.129,8.129,0,1,0,8.13-8.343,8.3,8.3,0,0,0-8.13,8.343m17.629.042a9.5,9.5,0,1,1-9.5-9.633,9.492,9.492,0,0,1,9.5,9.633" transform="translate(3451.094 6447.567)" fill="#82368c"/>
    <path id="Trazado_2339" data-name="Trazado 2339" d="M262.307,154.285c0-2.494.347-3.784,1.332-5.029a5.6,5.6,0,0,1,4.3-2.066,5.754,5.754,0,0,1,5.119,3.053,5.81,5.81,0,0,1,5.077-3.053,5.671,5.671,0,0,1,4.643,2.494c.769,1.2.985,2.236.985,4.945v11.354h-1.332v-11.4a8.915,8.915,0,0,0-.512-3.655,4.327,4.327,0,0,0-3.829-2.494,4.209,4.209,0,0,0-3.655,2.149,8.45,8.45,0,0,0-.733,4.041v11.354h-1.332V154.545a7.288,7.288,0,0,0-.9-4.257,4.252,4.252,0,0,0-3.443-1.85,4.466,4.466,0,0,0-3.568,1.892c-.647.988-.82,1.85-.82,4.514v11.139h-1.332Z" transform="translate(3465.951 6447.567)" fill="#82368c"/>
    <path id="Trazado_2340" data-name="Trazado 2340" d="M271.915,156.779a8.173,8.173,0,1,0,8.259-8.34,8.28,8.28,0,0,0-8.259,8.34m16.383,4.814a9.273,9.273,0,0,1-8.256,4.733,9.567,9.567,0,1,1,8.211-14.533c1.078,1.8,1.377,3.266,1.377,6.577v7.615H288.3Z" transform="translate(3482.449 6447.568)" fill="#82368c"/>
    <path id="Trazado_2341" data-name="Trazado 2341" d="M240.741,153.757h1.332v6.451h5.158v1.248h-5.158V171c0,4.559,1.335,6.193,5.158,6.322v1.248c-2.278,0-3.7-.518-4.855-1.721-1.206-1.29-1.634-2.8-1.634-5.718v-9.675H237.6v-1.248h3.14Z" transform="translate(3416.701 6460.658)" fill="#82368c"/>
    <path id="Trazado_2342" data-name="Trazado 2342" d="M243.212,165.15a6.732,6.732,0,0,1,11.309.6c.689,1.29.907,2.323.907,4.775v10.621h-1.335V170.44a8.9,8.9,0,0,0-.6-3.739,5.362,5.362,0,0,0-4.814-3.1c-3.272,0-5.463,2.667-5.463,6.663v10.881h-1.329V152.464h1.329Z" transform="translate(3425.236 6458.08)" fill="#82368c"/>
    <path id="Trazado_2343" data-name="Trazado 2343" d="M265.332,164.626a8.238,8.238,0,0,0-16.428,0Zm1.072,2.841c-1.332,4.688-4.772,7.439-9.328,7.439a9.569,9.569,0,1,1,8.552-13.893,10.319,10.319,0,0,1,1.078,3.874c0,.859-.216.988-1.721.988H248.859a8.285,8.285,0,0,0,8.256,7.783,8.194,8.194,0,0,0,7.957-6.19Z" transform="translate(3436.488 6464.667)" fill="#82368c"/>
    <path id="Trazado_2344" data-name="Trazado 2344" d="M261.52,157.145c-3.829.129-5.161,1.76-5.161,6.319V174.3h-1.335V163.336c0-3.481.688-5.245,2.541-6.448a6.643,6.643,0,0,1,3.954-.991Z" transform="translate(3451.433 6464.924)" fill="#82368c"/>
    <path id="Trazado_2345" data-name="Trazado 2345" d="M258.5,165.356a8.173,8.173,0,1,0,8.259-8.34,8.28,8.28,0,0,0-8.259,8.34m16.383,4.816a9.279,9.279,0,0,1-8.256,4.733,9.569,9.569,0,1,1,8.211-14.536c1.078,1.805,1.377,3.269,1.377,6.58v7.612h-1.332Z" transform="translate(3455.703 6464.667)" fill="#82368c"/>
    <path id="Trazado_2346" data-name="Trazado 2346" d="M266.255,165.228a8.173,8.173,0,1,0,16.341.126,8.172,8.172,0,1,0-16.341-.126m-.042,19.562h-1.332V166.947c0-3.311.3-4.775,1.374-6.577a9.542,9.542,0,1,1,8.214,14.533,9.282,9.282,0,0,1-8.256-4.73Z" transform="translate(3471.082 6464.669)" fill="#82368c"/>
    <path id="Trazado_2347" data-name="Trazado 2347" d="M286.54,175.564c0,3.224-.215,4.472-1.036,6.02a7.141,7.141,0,0,1-12.126.386,7.118,7.118,0,0,1-1.287-4.128h1.332a5.677,5.677,0,0,0,1.072,3.526,5.833,5.833,0,0,0,4.861,2.538,5.505,5.505,0,0,0,5.116-3.182,11.844,11.844,0,0,0,.736-5.161v-3.613c-1.985,2.062-3.272,2.754-5.421,2.754a6.625,6.625,0,0,1-6.152-4c-.515-1.29-.56-1.763-.56-4.685V155.912h1.335v10.106a10.207,10.207,0,0,0,.6,4.385,5.28,5.28,0,0,0,4.73,3.053,5.52,5.52,0,0,0,4.775-2.883c.515-1.03.691-2.191.691-4.514V155.912h1.332Z" transform="translate(3485.455 6464.955)" fill="#82368c"/>
  </g>
</svg>
