<svg xmlns="http://www.w3.org/2000/svg" width="164.742" height="73.082" viewBox="0 0 164.742 73.082">
  <g id="Grupo_12048" data-name="Grupo 12048" transform="translate(-1270.687 -6840.986)">
    <path id="Trazado_1480" data-name="Trazado 1480" d="M181.279,85.206h23.216V78.794H188.736V73.34H202.77V67.565H188.736v-5.01H204.1V56.581H181.279ZM228.63,72.018a8.651,8.651,0,0,0-1.08-3.6,8.047,8.047,0,0,0-2.293-2.567,9.991,9.991,0,0,0-3.175-1.538,13,13,0,0,0-3.714-.513,11.8,11.8,0,0,0-4.53.842,9.657,9.657,0,0,0-3.435,2.351,10.405,10.405,0,0,0-2.179,3.586,13.466,13.466,0,0,0-.762,4.567,11.446,11.446,0,0,0,.82,4.355,9.847,9.847,0,0,0,2.285,3.369,10.372,10.372,0,0,0,3.457,2.172,12.16,12.16,0,0,0,4.344.769,12.532,12.532,0,0,0,3.882-.59,9.97,9.97,0,0,0,3.2-1.71,9,9,0,0,0,2.271-2.758,10.3,10.3,0,0,0,1.11-3.725h-6.614a4.424,4.424,0,0,1-1.176,2.611,3.741,3.741,0,0,1-2.714.956,3.588,3.588,0,0,1-1.853-.472,3.768,3.768,0,0,1-1.256-1.242,5.851,5.851,0,0,1-.714-1.751,8.507,8.507,0,0,1-.227-1.985,14,14,0,0,1,.154-2.179,6.27,6.27,0,0,1,.623-1.97,3.541,3.541,0,0,1,1.337-1.432,4.407,4.407,0,0,1,2.3-.553,3.61,3.61,0,0,1,1.619.385,3.3,3.3,0,0,1,1.216,1.058,2.85,2.85,0,0,1,.494,1.564Zm9.423,2.805a9.549,9.549,0,0,1,.2-2.025,6.452,6.452,0,0,1,.674-1.879,3.849,3.849,0,0,1,1.271-1.373,3.62,3.62,0,0,1,1.981-.535,3.668,3.668,0,0,1,1.992.535,3.921,3.921,0,0,1,1.286,1.373,6.7,6.7,0,0,1,.689,1.879,10.066,10.066,0,0,1,0,4.043,6.561,6.561,0,0,1-.689,1.864,3.919,3.919,0,0,1-1.286,1.362,3.7,3.7,0,0,1-1.992.527,3.649,3.649,0,0,1-1.981-.527,3.846,3.846,0,0,1-1.271-1.362,6.323,6.323,0,0,1-.674-1.864,9.481,9.481,0,0,1-.2-2.018m-6.816,0a11.915,11.915,0,0,0,.8,4.358,10.261,10.261,0,0,0,5.713,5.79,12.137,12.137,0,0,0,8.867,0,10.37,10.37,0,0,0,3.476-2.311,10.476,10.476,0,0,0,2.267-3.479,12.2,12.2,0,0,0,0-8.72,10.555,10.555,0,0,0-2.267-3.5,10.343,10.343,0,0,0-3.476-2.322,12.087,12.087,0,0,0-8.867,0,10.245,10.245,0,0,0-3.461,2.322,10.349,10.349,0,0,0-2.252,3.5,11.935,11.935,0,0,0-.8,4.362" transform="translate(1089.408 6807.208)" fill="#afca0b"/>
    <path id="Trazado_1481" data-name="Trazado 1481" d="M218.493,61.227a5.167,5.167,0,0,1-1.315-.6,4.784,4.784,0,0,0-1.674-.63c-1.513-.125-3.618.967-6.314,3.292C206.4,65.669,205,67.728,205,69.423q0,1.362,4.849,1.362,9.367,0,9.361,5.219,0,3.686-4.142,6.607a12.907,12.907,0,0,1-7.5,2.663,5.166,5.166,0,0,1-3.084-1.036,3.519,3.519,0,0,1-1.652-3.01,3.568,3.568,0,0,1,.652-1.8c.491-.791,1.025-1.187,1.582-1.187a1.014,1.014,0,0,1,.454.1,6.185,6.185,0,0,1-.374,1.787,1.971,1.971,0,0,0-.15.769c0,.989.593,1.487,1.78,1.487a14.156,14.156,0,0,0,6.277-1.791c2.615-1.326,3.93-2.721,3.93-4.182a2.633,2.633,0,0,0-1.359-2.26,4.988,4.988,0,0,0-2.487-.8l-6.387-.231a9.516,9.516,0,0,1-3.091-.663q-2.027-.8-2.025-2.128c0-2.186,1.721-4.966,5.164-8.314s6.347-5.036,8.72-5.036a5.39,5.39,0,0,1,2.432.769c1.128.615,1.7,1.3,1.7,2.055,0,.956-.4,1.432-1.161,1.432" transform="translate(1143.623 6808.246)" fill="#34852b"/>
    <path id="Trazado_1482" data-name="Trazado 1482" d="M211.5,68.482q6.8-9.872,13.511-9.874,4.417,0,4.421,6.314,0,5.219-4.651,11.562-4.813,6.576-9.27,6.581-3.346,0-3.347-3.421a7.257,7.257,0,0,1,.7-2.7h1.4a4.978,4.978,0,0,1-.073,1.428,9.109,9.109,0,0,0-.128,1.359c0,.513.293.769.9.769,2.8,0,5.523-2.23,8.127-6.71q3.455-5.878,3.454-9.628c0-2.245-.593-3.358-1.791-3.358q-3.593,0-8.394,5.918c-2.919,3.556-4.615,6.512-5.083,8.837a71.587,71.587,0,0,0-1.326,13.917c-.092,7.42,1,11.13,3.256,11.13a3.506,3.506,0,0,0,.352-.117c.209-.081.765-.278,1.674-.615v1.256c0,.429-.359.791-1.069,1.1a3.009,3.009,0,0,1-1.256.363c-1.861-.176-3.3-1.524-4.325-4.058a20.791,20.791,0,0,1-1.293-6.907c-.044-1.245-.07-2.512-.07-3.816q0-7.081,1.63-24.791.467-4.845,2.827-4.849c1,0,1.487.546,1.487,1.626a3.652,3.652,0,0,1-.026.4Z" transform="translate(1158.429 6811.465)" fill="#34852b"/>
    <path id="Trazado_1483" data-name="Trazado 1483" d="M234.25,82.248c-2.106-.743-3.153-3.208-3.153-7.372V73.517a58.062,58.062,0,0,1-7.23,8.01q-5.076,4.659-8,4.651a2.605,2.605,0,0,1-1.652-.535,3.4,3.4,0,0,1-1.2-2.93q0-4.153,4.453-11.2A49.7,49.7,0,0,1,226.9,60.42q5.582-4.741,8.27-2.985c.85.535,1.267,1.648,1.267,3.358,0,2.036-.7,3.117-2.095,3.256-.974.059-1.454-.278-1.454-1.033a.7.7,0,0,1,.059-.3,6.937,6.937,0,0,0,.593-2.791c0-.476-.059-.711-.161-.7q-3.3.61-10.639,10.152-7.361,9.559-7.361,13.174c0,.85.374,1.271,1.128,1.271q2.9,0,9.068-7.479,4.291-5.18,4.688-5.743a10.707,10.707,0,0,0,2.164-4.827,1.456,1.456,0,0,1,1.589-1.487q2.027,0,1.63,1.952a84.289,84.289,0,0,0-1.63,10.409c0,2.256.5,3.509,1.491,3.78a1.494,1.494,0,0,0,1.128-.2c.337-.2.524-.392.568-.59a1.606,1.606,0,0,1,1.666-1.432c.535,0,.787.289.787.861a2.407,2.407,0,0,1-.2.9,3.7,3.7,0,0,1-3.71,2.589,3.93,3.93,0,0,1-1.5-.3" transform="translate(1173.903 6808.213)" fill="#34852b"/>
    <path id="Trazado_1484" data-name="Trazado 1484" d="M225.253,55.289c3.556-2.743,7.109-4.047,11.093-3.516s5.772,1.135,7.545,1.443a34.553,34.553,0,0,0,4.527.33,17.049,17.049,0,0,0-5.867,3.124c-2.311,2.113-5.16,5.677-8,7.515a13.361,13.361,0,0,1-7.64,2.333c-2.479.026-4.08.059-5.413,1.011a8.338,8.338,0,0,0-1.333,1.033,20.771,20.771,0,0,1,5.962-6.8,37.381,37.381,0,0,1,9.683-5.065,29.447,29.447,0,0,1,3.878-1.183,1.007,1.007,0,0,1,.117-.018.651.651,0,0,0-.117.018,40.769,40.769,0,0,0-9.826,2.692,23.156,23.156,0,0,0-8.892,7.306,19.9,19.9,0,0,0-2.959,4.637,49.99,49.99,0,0,0,1.454-5.578,16.6,16.6,0,0,1,5.79-9.284m-7.314,15.089s.026-.1.07-.227a1.01,1.01,0,0,0-.07.227" transform="translate(1187.012 6794.095)" fill="#34852b"/>
    <path id="Trazado_1485" data-name="Trazado 1485" d="M217.4,61.569a7.007,7.007,0,0,1-.93-5.552c.527-1.879.938-2.688,1.209-3.516a17.083,17.083,0,0,0,.465-2.146,8.265,8.265,0,0,0,1.1,3.025,33.887,33.887,0,0,1,3.054,4.344,6.488,6.488,0,0,1,.6,3.816A4.411,4.411,0,0,0,223,64.2a4.158,4.158,0,0,0,.407.711,10,10,0,0,1-2.849-3.318,18.054,18.054,0,0,1-1.765-4.985,14.251,14.251,0,0,1-.3-1.937v0a19.743,19.743,0,0,0,.619,4.889A11.241,11.241,0,0,0,222,64.32a9.752,9.752,0,0,0,2.018,1.732,24.572,24.572,0,0,0-2.571-1.077,8.021,8.021,0,0,1-4.051-3.406m6.728,4.53-.106-.048a.547.547,0,0,0,.106.048" transform="translate(1182.469 6790.631)" fill="#34852b"/>
  </g>
</svg>
