<svg xmlns="http://www.w3.org/2000/svg" width="112.152" height="116.836" viewBox="0 0 112.152 116.836">
  <g id="Grupo_12820" data-name="Grupo 12820" transform="translate(-986.785 -7064.715)">
    <path id="Trazado_2171" data-name="Trazado 2171" d="M23.777,430.255v3.462h-.435V426.7h.435v3.185h4.483V426.7H28.7v7.021h-.435v-3.462Z" transform="translate(963.504 6726.304)" fill="#433833"/>
    <rect id="Rectángulo_5607" data-name="Rectángulo 5607" width="0.437" height="7.023" transform="translate(994.627 7152.998)" fill="#433833"/>
    <path id="Trazado_2172" data-name="Trazado 2172" d="M34.283,430.37v3.443h-.374v-1.5h-.02a2.682,2.682,0,0,1-2.655,1.661c-2.125,0-3.308-1.622-3.308-3.638,0-1.987,1.2-3.72,3.317-3.72a2.822,2.822,0,0,1,2.922,2.342H33.75a2.474,2.474,0,0,0-2.5-1.969c-1.9,0-2.893,1.595-2.893,3.346,0,1.79.963,3.264,2.893,3.264a2.535,2.535,0,0,0,2.655-2.861H31.32v-.374Z" transform="translate(969.304 6726.209)" fill="#433833"/>
    <path id="Trazado_2173" data-name="Trazado 2173" d="M32.216,430.255v3.462h-.435V426.7h.435v3.185H36.7V426.7h.435v7.021H36.7v-3.462Z" transform="translate(974.182 6726.304)" fill="#433833"/>
    <path id="Trazado_2174" data-name="Trazado 2174" d="M37.893,430.217h2.472a1.519,1.519,0,0,0,1.7-1.565,1.5,1.5,0,0,0-1.642-1.581H37.893Zm-.43-3.521h2.988a1.829,1.829,0,0,1,2.048,1.966c0,1.23-.809,1.928-2.2,1.928h-2.4v3.129h-.43Z" transform="translate(981.372 6726.304)" fill="#433833"/>
    <path id="Trazado_2175" data-name="Trazado 2175" d="M45.324,433.345v.374H40.553V426.7h4.721v.374H40.984v2.814h4.035v.374H40.984v3.088Z" transform="translate(985.282 6726.303)" fill="#433833"/>
    <path id="Trazado_2176" data-name="Trazado 2176" d="M46.441,430.149c1.024,0,1.792-.483,1.792-1.615,0-1.06-.845-1.464-1.792-1.464h-2.5v3.079ZM43.509,426.7h2.931c1.23,0,2.222.451,2.222,1.81a1.727,1.727,0,0,1-1.5,1.8v.02a1.423,1.423,0,0,1,1.366,1.5c.07.727-.048,1.516.24,1.889H48.28a6.415,6.415,0,0,1-.186-1.969c-.088-.677-.424-1.228-1.654-1.228h-2.5v3.2h-.435Z" transform="translate(989.022 6726.304)" fill="#433833"/>
    <path id="Trazado_2177" data-name="Trazado 2177" d="M47.2,430.255v3.462h-.435V426.7h4.406v.374H47.2v2.811h3.579v.374Z" transform="translate(993.148 6726.304)" fill="#433833"/>
    <path id="Trazado_2178" data-name="Trazado 2178" d="M52.731,433.605c1.83,0,2.9-1.5,2.9-3.3s-1.072-3.308-2.9-3.308S49.82,428.5,49.82,430.3s1.074,3.3,2.911,3.3m0,.374c-2.1,0-3.344-1.622-3.344-3.677s1.239-3.681,3.344-3.681,3.337,1.624,3.337,3.681-1.239,3.677-3.337,3.677" transform="translate(996.461 6726.209)" fill="#433833"/>
    <path id="Trazado_2179" data-name="Trazado 2179" d="M56.2,430.149c1.024,0,1.792-.483,1.792-1.615,0-1.06-.845-1.464-1.792-1.464H53.7v3.079ZM53.268,426.7H56.2c1.23,0,2.222.451,2.222,1.81a1.727,1.727,0,0,1-1.5,1.8v.02a1.423,1.423,0,0,1,1.366,1.5c.07.727-.048,1.516.24,1.889h-.485a6.415,6.415,0,0,1-.186-1.969c-.088-.677-.424-1.228-1.654-1.228H53.7v3.2h-.435Z" transform="translate(1001.372 6726.304)" fill="#433833"/>
    <path id="Trazado_2180" data-name="Trazado 2180" d="M56.528,426.7h.618l2.748,6.54h.016l2.719-6.54h.618v7.023h-.435v-6.493H62.8l-2.676,6.493h-.435l-2.7-6.493h-.02v6.493h-.435Z" transform="translate(1005.499 6726.304)" fill="#433833"/>
    <path id="Trazado_2181" data-name="Trazado 2181" d="M64.825,431.093l-1.5-3.974H63.3l-1.565,3.974Zm-1.289-4.4,2.773,7.023h-.46l-.886-2.252H61.6l-.893,2.252H60.24l2.825-7.023Z" transform="translate(1010.195 6726.304)" fill="#433833"/>
    <path id="Trazado_2182" data-name="Trazado 2182" d="M63.665,426.7h.541l4.438,6.443h.02V426.7h.43v7.023h-.512l-4.463-6.493H64.1v6.493h-.435Z" transform="translate(1014.53 6726.304)" fill="#433833"/>
    <path id="Trazado_2183" data-name="Trazado 2183" d="M72.754,428.884a2.307,2.307,0,0,0-2.392-1.889c-1.842,0-2.911,1.506-2.911,3.308s1.069,3.3,2.911,3.3a2.645,2.645,0,0,0,2.508-2.528H73.3a3.033,3.033,0,0,1-2.943,2.9c-2.1,0-3.346-1.622-3.346-3.677s1.241-3.681,3.346-3.681a2.672,2.672,0,0,1,2.82,2.263Z" transform="translate(1018.769 6726.209)" fill="#433833"/>
    <path id="Trazado_2184" data-name="Trazado 2184" d="M75.486,433.345v.374H70.715V426.7h4.723v.374H71.15v2.814h4.032v.374H71.15v3.088Z" transform="translate(1023.451 6726.303)" fill="#433833"/>
    <path id="Trazado_2185" data-name="Trazado 2185" d="M23.316,433.232h1.339l3.523,11.234,3.736-11.785,3.9,11.688,3.382-11.137h1.321l-4.7,14.44-3.9-11.764-3.736,11.764Z" transform="translate(963.469 6733.878)" fill="#312783"/>
    <path id="Trazado_2186" data-name="Trazado 2186" d="M39.778,441.435l-2.4-6.117-2.5,6.117Zm-2.322-8.754L43.378,447.3h-1.4l-1.79-4.76H34.447l-1.869,4.76h-1.3Z" transform="translate(973.545 6733.877)" fill="#312783"/>
    <path id="Trazado_2187" data-name="Trazado 2187" d="M40.6,434.125H36.73v-1.2h9.028v1.2H41.884v12.868H40.6Z" transform="translate(980.446 6734.185)" fill="#312783"/>
    <path id="Trazado_2188" data-name="Trazado 2188" d="M42.161,432.924h6.964v1.2H43.441v4.406h5.684v1.2H43.441v6.058h5.684v1.2H42.161Z" transform="translate(987.318 6734.186)" fill="#312783"/>
    <path id="Trazado_2189" data-name="Trazado 2189" d="M48.4,439.239h1.278c2.184,0,3.208-.51,3.208-2.517,0-2.028-.963-2.675-3.208-2.675H48.4Zm5.707,7.752-4.939-6.708H48.4v6.708H47.124V432.925H49.7c3.049,0,4.567,1.257,4.567,3.835a3.317,3.317,0,0,1-3.661,3.523l5.056,6.708Z" transform="translate(993.597 6734.187)" fill="#312783"/>
    <path id="Trazado_2190" data-name="Trazado 2190" d="M59.436,433.909a6.23,6.23,0,0,0-.179,12.453,7.226,7.226,0,0,0,4.544-1.633l-.02,1.5a8.568,8.568,0,0,1-4.463,1.318,7.379,7.379,0,1,1,0-14.757,7.22,7.22,0,0,1,4.581,1.477l-.036,1.416a6.54,6.54,0,0,0-4.427-1.769" transform="translate(999.669 6734.009)" fill="#36a9e1"/>
    <path id="Trazado_2191" data-name="Trazado 2191" d="M66.581,441.435l-2.4-6.117-2.5,6.117Zm-2.322-8.754L70.181,447.3h-1.4l-1.79-4.76H61.25l-1.869,4.76h-1.3Z" transform="translate(1007.462 6733.877)" fill="#36a9e1"/>
    <path id="Trazado_2192" data-name="Trazado 2192" d="M65.9,439.239h1.278c2.182,0,3.206-.51,3.206-2.517,0-2.028-.963-2.675-3.206-2.675H65.9Zm5.7,7.752-4.936-6.708H65.9v6.708h-1.28V432.925H67.2c3.049,0,4.565,1.257,4.565,3.835a3.317,3.317,0,0,1-3.661,3.523l5.059,6.708Z" transform="translate(1015.743 6734.187)" fill="#36a9e1"/>
    <path id="Trazado_2193" data-name="Trazado 2193" d="M69.716,432.924h6.966v1.2H71v4.406h5.686v1.2H71v6.058h5.686v1.2H69.716Z" transform="translate(1022.186 6734.186)" fill="#36a9e1"/>
    <path id="Trazado_2194" data-name="Trazado 2194" d="M70.244,426.807C51.889,426.807,37,424.29,37,421.2s14.889-5.6,33.243-5.6,33.243,2.51,33.243,5.6-14.889,5.6-33.243,5.6m0-12.4c-22.02,0-39.872,3.049-39.872,6.8S48.224,428,70.244,428s39.872-3.047,39.872-6.8-17.845-6.8-39.872-6.8" transform="translate(972.399 6710.749)" fill="#433833"/>
    <path id="Trazado_2195" data-name="Trazado 2195" d="M76.954,419.179c0,1.753-8.326,3.167-18.6,3.167s-18.586-1.414-18.586-3.167,8.319-3.174,18.586-3.174,18.6,1.425,18.6,3.174" transform="translate(984.283 6712.775)" fill="#756660"/>
    <path id="Trazado_2196" data-name="Trazado 2196" d="M56.307,441.823c-9.18,0-21.578-9.094-9.689-24.886,11.024-14.653,5.811-29.211,5.811-29.211s14.8,22.312,17.211,36.293c2.154,12.462-5.442,17.8-13.332,17.8" transform="translate(986.772 6676.989)" fill="#36a9e1"/>
  </g>
</svg>
