<svg xmlns="http://www.w3.org/2000/svg" width="163.958" height="126.087" viewBox="0 0 163.958 126.087">
  <g id="Grupo_12783" data-name="Grupo 12783" transform="translate(-829.966 -6828.408)">
    <path id="Trazado_1469" data-name="Trazado 1469" d="M180.992,134.722l-86.849,26.4V74.27l86.849-26.4Z" transform="translate(735.822 6780.54)" fill="#b9a794"/>
    <path id="Trazado_1470" data-name="Trazado 1470" d="M185.991,137.255l-86.854,26.4V76.808l86.854-26.4Z" transform="translate(756.085 6790.838)" fill="#7b6042"/>
    <path id="Trazado_1471" data-name="Trazado 1471" d="M118.583,59.886,114.713,74.67h-1.942l-3.015-10.364L106.762,74.67H104.8l-3.854-14.784h2.367l2.574,10.566,2.974-10.566h1.811l2.969,10.566,2.58-10.566Z" transform="translate(763.426 6829.307)" fill="#fff"/>
    <path id="Trazado_1472" data-name="Trazado 1472" d="M112.842,67.378a20.174,20.174,0,0,0-.167-3.106,2.887,2.887,0,0,0-.708-1.482,2.8,2.8,0,0,0-.976-.663,3.159,3.159,0,0,0-2.453,0,2.822,2.822,0,0,0-.981.663,3,3,0,0,0-.7,1.487,19.46,19.46,0,0,0-.167,3.1c0,.784.01,1.406.035,1.876a8.666,8.666,0,0,0,.136,1.229,3.34,3.34,0,0,0,.243.819,3.042,3.042,0,0,0,.455.658,2.745,2.745,0,0,0,.991.668,3.14,3.14,0,0,0,1.219.243,2.87,2.87,0,0,0,2.2-.91,2.546,2.546,0,0,0,.551-.9,5.162,5.162,0,0,0,.258-1.376c.04-.582.066-1.35.066-2.306m2.241-.005c0,1.168-.025,2.064-.066,2.681a6.165,6.165,0,0,1-.374,1.745,4.431,4.431,0,0,1-.971,1.512,5.595,5.595,0,0,1-7.789.01,4.542,4.542,0,0,1-.991-1.512,6.334,6.334,0,0,1-.379-1.74c-.046-.627-.066-1.522-.066-2.691,0-.9.01-1.613.035-2.139a9.494,9.494,0,0,1,.162-1.452,4.34,4.34,0,0,1,1.239-2.352,5.278,5.278,0,0,1,3.884-1.573,5.34,5.34,0,0,1,3.9,1.573,4.41,4.41,0,0,1,.981,1.512,6.369,6.369,0,0,1,.364,1.74c.04.622.066,1.517.066,2.686" transform="translate(777.629 6829.209)" fill="#fff"/>
    <path id="Trazado_1473" data-name="Trazado 1473" d="M115.191,67.378a19.371,19.371,0,0,0-.172-3.106,2.811,2.811,0,0,0-.708-1.482,2.753,2.753,0,0,0-.976-.663,3.159,3.159,0,0,0-2.453,0,2.869,2.869,0,0,0-.981.663,3.044,3.044,0,0,0-.7,1.487,19.463,19.463,0,0,0-.167,3.1c0,.784.01,1.406.035,1.876a9.469,9.469,0,0,0,.137,1.229,3.848,3.848,0,0,0,.243.819,3.235,3.235,0,0,0,.455.658,2.835,2.835,0,0,0,.991.668,3.14,3.14,0,0,0,1.219.243,2.863,2.863,0,0,0,2.2-.91,2.635,2.635,0,0,0,.556-.9,5.6,5.6,0,0,0,.258-1.376c.04-.582.066-1.35.066-2.306m2.241-.005c0,1.168-.025,2.064-.066,2.681a6.341,6.341,0,0,1-.374,1.745,4.509,4.509,0,0,1-.971,1.512,5.341,5.341,0,0,1-3.91,1.583,5.264,5.264,0,0,1-3.874-1.573,4.426,4.426,0,0,1-1-1.512,6.331,6.331,0,0,1-.374-1.74c-.046-.627-.071-1.522-.071-2.691,0-.9.01-1.613.04-2.139a10.219,10.219,0,0,1,.157-1.452,4.619,4.619,0,0,1,.42-1.234,4.407,4.407,0,0,1,.829-1.118,5.264,5.264,0,0,1,3.874-1.573,5.352,5.352,0,0,1,3.91,1.573A4.322,4.322,0,0,1,117,62.947a6.368,6.368,0,0,1,.369,1.74c.04.622.066,1.517.066,2.686" transform="translate(787.141 6829.209)" fill="#fff"/>
    <path id="Trazado_1474" data-name="Trazado 1474" d="M117.529,67.185c0-.855-.02-1.507-.045-1.973a5.865,5.865,0,0,0-.218-1.3,2.524,2.524,0,0,0-.531-1,3.218,3.218,0,0,0-2.519-1.007H111.5V72.652h2.716a3.236,3.236,0,0,0,2.519-.991,2.805,2.805,0,0,0,.657-1.568,24.073,24.073,0,0,0,.137-2.908m2.236-.005v.738a19.405,19.405,0,0,1-.091,2.089,6.676,6.676,0,0,1-.42,1.755,4.264,4.264,0,0,1-.991,1.522,5.173,5.173,0,0,1-3.829,1.391h-5.194V59.886h5.194a5.173,5.173,0,0,1,3.829,1.391,4.338,4.338,0,0,1,.991,1.482,6.127,6.127,0,0,1,.42,1.669,17.925,17.925,0,0,1,.091,2Z" transform="translate(797.078 6829.307)" fill="#fff"/>
    <path id="Trazado_1475" data-name="Trazado 1475" d="M121.129,74.67h-9.463V59.886h9.463V61.9h-7.2v4.309h6.145v2h-6.145v4.441h7.2Z" transform="translate(806.926 6829.308)" fill="#fff"/>
    <path id="Trazado_1476" data-name="Trazado 1476" d="M121.923,64.231a2.171,2.171,0,0,0-.683-1.7,2.617,2.617,0,0,0-1.831-.622H116.1v4.623h3.313a2.665,2.665,0,0,0,1.831-.617,2.155,2.155,0,0,0,.683-1.679m2.7,10.439H122l-3.111-6.216h-2.8V74.67h-2.261V59.886h5.741a5.082,5.082,0,0,1,2.413.551A3.934,3.934,0,0,1,123.6,61.97a4.375,4.375,0,0,1,.561,2.241,3.944,3.944,0,0,1-.814,2.544,4.074,4.074,0,0,1-2.124,1.386Z" transform="translate(815.729 6829.307)" fill="#fff"/>
    <path id="Trazado_1477" data-name="Trazado 1477" d="M138.353,75h-1.578V65.692a4.754,4.754,0,0,0-1.067-3.333,3.944,3.944,0,0,0-3.065-1.158,4.212,4.212,0,0,0-3.09,1.133A4.128,4.128,0,0,0,128.4,65.4V75h-1.578V65.692a4.754,4.754,0,0,0-1.067-3.333,3.956,3.956,0,0,0-3.07-1.158,4.677,4.677,0,0,0-2.291.526,3.475,3.475,0,0,0-1.452,1.538,5.413,5.413,0,0,0-.5,2.428V75h-1.583V59.987h1.583v1.78A5.58,5.58,0,0,1,122.9,59.8a6.242,6.242,0,0,1,2.038.319,4.72,4.72,0,0,1,2.782,2.418,5.662,5.662,0,0,1,5.1-2.736,6.536,6.536,0,0,1,2.246.364,4.639,4.639,0,0,1,1.7,1.062,5.459,5.459,0,0,1,1.578,4.168Z" transform="translate(828.012 6828.978)"/>
    <path id="Trazado_1478" data-name="Trazado 1478" d="M131.629,69.769V67.837h-4.663q-3.831,0-3.829,3.025a2.586,2.586,0,0,0,.951,2.205,4.964,4.964,0,0,0,2.969.713,8.852,8.852,0,0,0,2.114-.217,3.485,3.485,0,0,0,1.619-.936,3.818,3.818,0,0,0,.84-2.858M133.238,75h-1.608V73.507a5.322,5.322,0,0,1-1.962,1.31,7.864,7.864,0,0,1-2.61.364,11.964,11.964,0,0,1-1.917-.137,5,5,0,0,1-1.436-.44,3.89,3.89,0,0,1-1.067-.794,4.049,4.049,0,0,1-1.082-2.918,3.885,3.885,0,0,1,1.4-3.2,5.886,5.886,0,0,1,3.829-1.133h4.85V64.868a3.558,3.558,0,0,0-1-2.762,4.73,4.73,0,0,0-3.227-.905,6.04,6.04,0,0,0-2.509.435,4.173,4.173,0,0,0-1.639,1.467l-1.138-1a5.206,5.206,0,0,1,1.381-1.386,5.113,5.113,0,0,1,1.71-.7,10.376,10.376,0,0,1,2.2-.212q5.834,0,5.827,4.911Z" transform="translate(847.051 6828.978)"/>
    <path id="Trazado_1479" data-name="Trazado 1479" d="M136.055,74.853h-1.932l-3.955-6.327-4.016,6.327H124.22l5.078-7.668-4.866-7.344h1.932l3.8,6.039,3.743-6.039h1.932l-4.871,7.344Z" transform="translate(857.868 6829.125)"/>
  </g>
</svg>
