<svg xmlns="http://www.w3.org/2000/svg" width="178.339" height="114.311" viewBox="0 0 178.339 114.311">
  <g id="Grupo_12052" data-name="Grupo 12052" transform="translate(-1075.321 -7070.65)">
    <path id="Trazado_1524" data-name="Trazado 1524" d="M155.037,118.181q-.026-.118-.079-.432c-.039-.21-.1-.489-.175-.847h-.07c-.175.743-.266,1.171-.284,1.28l-.791,3.071-.009.048-.013.044c0,.144.083.214.258.214h1.7c.17,0,.253-.07.253-.214l-.013-.044-.009-.048Zm5.111,8.321.013.035c0,.14-.087.21-.258.21h-2.35c-.144,0-.218-.052-.232-.162l-.7-2.446c-.009-.092-.087-.14-.227-.14h-3.333c-.14,0-.218.048-.231.14l-.7,2.446c-.018.109-.1.162-.236.162h-2.328c-.166,0-.253-.07-.253-.21l.013-.035a.082.082,0,0,0,.013-.057l4.329-14.205a.238.238,0,0,1,.232-.162h1.677a.238.238,0,0,1,.232.162l4.329,14.205a.082.082,0,0,0,.013.057" transform="translate(955.09 7029.846)" fill="#f39200"/>
    <path id="Trazado_1525" data-name="Trazado 1525" d="M161.628,124.546a3.968,3.968,0,0,1-.874,1.3,3.7,3.7,0,0,1-1.363.839,5.153,5.153,0,0,1-1.782.293h-1.14a5.11,5.11,0,0,1-1.778-.293,3.806,3.806,0,0,1-1.38-.839,3.706,3.706,0,0,1-.869-1.3,4.51,4.51,0,0,1-.3-1.686V112.311a.206.206,0,0,1,.231-.232h2.188a.207.207,0,0,1,.236.232V122.86a1.6,1.6,0,0,0,.489,1.188,1.639,1.639,0,0,0,1.192.489h1.149a1.634,1.634,0,0,0,1.66-1.677V112.311a.206.206,0,0,1,.231-.232h2.193a.206.206,0,0,1,.232.232V122.86a4.344,4.344,0,0,1-.315,1.686" transform="translate(964.622 7029.846)" fill="#f39200"/>
    <path id="Trazado_1526" data-name="Trazado 1526" d="M162.281,116.2a1.614,1.614,0,0,0-.5-1.175,1.636,1.636,0,0,0-1.184-.5h-2.577a.2.2,0,0,0-.231.232v9.309a.205.205,0,0,0,.231.236h2.577a1.678,1.678,0,0,0,1.686-1.677Zm1.49,9.383a4.282,4.282,0,0,1-3.167,1.166h-5.237a.208.208,0,0,1-.236-.236v-14.2a.205.205,0,0,1,.236-.232H160.6a4.019,4.019,0,0,1,4.333,4.329v6.006a4.285,4.285,0,0,1-1.166,3.167" transform="translate(974.693 7029.85)" fill="#f39200"/>
    <path id="Trazado_1527" data-name="Trazado 1527" d="M160.5,126.747h-2.193a.206.206,0,0,1-.232-.231v-14.2a.207.207,0,0,1,.232-.236H160.5a.205.205,0,0,1,.232.236v14.2a.2.2,0,0,1-.232.231" transform="translate(984.615 7029.846)" fill="#f39200"/>
    <path id="Trazado_1528" data-name="Trazado 1528" d="M166.549,116.145a1.634,1.634,0,0,0-1.664-1.677h-1.149a1.646,1.646,0,0,0-1.193.489,1.612,1.612,0,0,0-.489,1.188v6.893a1.619,1.619,0,0,0,.489,1.188,1.646,1.646,0,0,0,1.193.489h1.149a1.641,1.641,0,0,0,1.664-1.677Zm2.337,8.579a3.838,3.838,0,0,1-.874,1.3,3.679,3.679,0,0,1-1.358.839,5.171,5.171,0,0,1-1.782.293h-1.14a5.118,5.118,0,0,1-1.782-.293,3.787,3.787,0,0,1-1.376-.839,3.59,3.59,0,0,1-.869-1.3,4.425,4.425,0,0,1-.306-1.686v-6.893a4.3,4.3,0,0,1,.319-1.69,3.733,3.733,0,0,1,.869-1.289,3.9,3.9,0,0,1,1.363-.839,5.019,5.019,0,0,1,1.782-.3h1.14a5.071,5.071,0,0,1,1.782.3,3.923,3.923,0,0,1,1.358.839,3.743,3.743,0,0,1,.874,1.289,4.383,4.383,0,0,1,.314,1.69v6.893a4.345,4.345,0,0,1-.314,1.686" transform="translate(989.068 7029.667)" fill="#f39200"/>
    <path id="Trazado_1529" data-name="Trazado 1529" d="M178.291,103.021c5.01,6.622,8.186,16.21,8.186,26.9s-3.176,20.277-8.186,26.9c7.081-4.477,12.052-14.83,12.052-26.9s-4.971-22.426-12.052-26.9" transform="translate(1052.703 6999.337)" fill="#5f73b6"/>
    <path id="Trazado_1530" data-name="Trazado 1530" d="M181.35,104.421c3.87,5.124,6.321,12.519,6.321,20.784s-2.451,15.664-6.321,20.788c5.469-3.464,9.3-11.462,9.3-20.788s-3.835-17.324-9.3-20.784" transform="translate(1063.006 7004.053)" fill="#8894ca"/>
    <path id="Trazado_1531" data-name="Trazado 1531" d="M167.19,104.794a29.6,29.6,0,0,1,32.967,0c-2.748-4.342-9.09-7.387-16.485-7.387s-13.738,3.045-16.481,7.387" transform="translate(1015.313 6980.428)" fill="#5f73b6"/>
    <path id="Trazado_1532" data-name="Trazado 1532" d="M168.048,101.462a22.882,22.882,0,0,1,25.466,0c-2.119-3.35-7.02-5.7-12.733-5.7s-10.619,2.35-12.733,5.7" transform="translate(1018.203 6974.888)" fill="#8894ca"/>
    <path id="Trazado_1533" data-name="Trazado 1533" d="M200.155,118.6a29.6,29.6,0,0,1-32.967,0c2.748,4.342,9.09,7.387,16.486,7.387s13.738-3.045,16.481-7.387" transform="translate(1015.306 7051.793)" fill="#5f73b6"/>
    <path id="Trazado_1534" data-name="Trazado 1534" d="M193.517,120.626a22.889,22.889,0,0,1-25.471,0c2.119,3.35,7.02,5.7,12.733,5.7s10.619-2.35,12.738-5.7" transform="translate(1018.197 7058.634)" fill="#8894ca"/>
    <path id="Trazado_1535" data-name="Trazado 1535" d="M150.843,103.31a1.82,1.82,0,0,0-.594.389,1.989,1.989,0,0,0-.406.581,1.72,1.72,0,0,0-.153.721,1.5,1.5,0,0,0,.424,1.061,4.089,4.089,0,0,0,1.276.865c.454.214.878.415,1.28.607a6.457,6.457,0,0,1,1.079.642A3.129,3.129,0,0,1,155,110.8a2.809,2.809,0,0,1-.839,2.119,3.141,3.141,0,0,1-2.276.8h-.764a3.89,3.89,0,0,1-1.153-.162,3.344,3.344,0,0,1-.86-.4,2.164,2.164,0,0,1-.55-.511.841.841,0,0,1-.2-.481.159.159,0,0,1,.1-.14l.747-.393a.286.286,0,0,1,.092-.017.107.107,0,0,1,.079.026l.066.061c.118.131.232.258.354.376a3.59,3.59,0,0,0,.367.323,1.445,1.445,0,0,0,.415.218,1.544,1.544,0,0,0,.537.083h.764a1.993,1.993,0,0,0,.747-.144,1.816,1.816,0,0,0,.612-.4,1.789,1.789,0,0,0,.406-.6,1.812,1.812,0,0,0,.153-.756,1.686,1.686,0,0,0-.17-.778,1.957,1.957,0,0,0-.476-.594,4.369,4.369,0,0,0-.756-.507c-.3-.162-.638-.328-1.018-.507-.459-.227-.874-.437-1.227-.642a4.046,4.046,0,0,1-.9-.677,2.567,2.567,0,0,1-.559-.861,3.134,3.134,0,0,1-.2-1.166,2.813,2.813,0,0,1,.834-2.119,3.128,3.128,0,0,1,2.258-.8h.288a3.734,3.734,0,0,1,1.136.166,3.855,3.855,0,0,1,.882.4,1.989,1.989,0,0,1,.559.5.829.829,0,0,1,.2.476c0,.048-.044.092-.127.127l-.747.371a.173.173,0,0,1-.087.017.146.146,0,0,1-.122-.07,9.417,9.417,0,0,0-.738-.686,1.484,1.484,0,0,0-.961-.293h-.288a1.939,1.939,0,0,0-.743.144" transform="translate(951.883 6996.41)"/>
    <path id="Trazado_1536" data-name="Trazado 1536" d="M156.255,110.825h-.66a.158.158,0,0,1-.179-.179v-.764c0-.131-.048-.192-.144-.192a.362.362,0,0,0-.262.175c-.1.118-.227.262-.393.428a2.084,2.084,0,0,1-1.476.533,3.008,3.008,0,0,1-1.14-.214,2.81,2.81,0,0,1-.922-.594,2.74,2.74,0,0,1-.62-.926,3.088,3.088,0,0,1-.218-1.184v-4.77a.156.156,0,0,1,.175-.179h.839a.159.159,0,0,1,.179.179v4.77a1.829,1.829,0,0,0,.149.738,2.162,2.162,0,0,0,.4.607,1.9,1.9,0,0,0,1.337.559,1.959,1.959,0,0,0,1.376-.559,1.765,1.765,0,0,0,.4-.607,1.9,1.9,0,0,0,.144-.738v-4.77a.159.159,0,0,1,.179-.179h.839a.159.159,0,0,1,.179.179v7.509a.158.158,0,0,1-.179.179" transform="translate(958.223 6999.125)"/>
    <path id="Trazado_1537" data-name="Trazado 1537" d="M155.984,104.221a1.892,1.892,0,0,1-.275-.026,2.636,2.636,0,0,0-.4-.026,2.023,2.023,0,0,0-.756.14,1.741,1.741,0,0,0-.6.4,1.958,1.958,0,0,0-.393.594,1.842,1.842,0,0,0-.144.729v4.608c0,.122-.057.179-.175.179h-.839a.156.156,0,0,1-.175-.179v-7.509a.155.155,0,0,1,.175-.175h.651a.153.153,0,0,1,.175.175v.891c0,.131.044.2.135.2s.227-.1.393-.284a6.551,6.551,0,0,1,.729-.677,1.205,1.205,0,0,1,.38-.214,1.359,1.359,0,0,1,.441-.087h.655a.156.156,0,0,1,.179.175v.909c0,.122-.052.179-.162.179" transform="translate(964.932 6999.128)"/>
    <path id="Trazado_1538" data-name="Trazado 1538" d="M157.2,104.221a1.891,1.891,0,0,1-.28-.026,2.594,2.594,0,0,0-.4-.026,2.007,2.007,0,0,0-.756.14,1.722,1.722,0,0,0-.594.4,1.955,1.955,0,0,0-.393.594,1.843,1.843,0,0,0-.144.729v4.608a.156.156,0,0,1-.175.179h-.843c-.114,0-.17-.057-.17-.179v-7.509a.152.152,0,0,1,.17-.175h.651a.153.153,0,0,1,.175.175v.891c0,.131.044.2.14.2s.227-.1.393-.284a5.842,5.842,0,0,1,.729-.677,1.205,1.205,0,0,1,.38-.214,1.334,1.334,0,0,1,.437-.087h.66a.156.156,0,0,1,.179.175v.909c0,.122-.057.179-.162.179" transform="translate(969.021 6999.128)"/>
    <path id="Trazado_1539" data-name="Trazado 1539" d="M159.555,105.823a1.85,1.85,0,0,0-.149-.721,2.053,2.053,0,0,0-.406-.607,1.818,1.818,0,0,0-.607-.411,1.922,1.922,0,0,0-.751-.148,1.889,1.889,0,0,0-.76.148,1.853,1.853,0,0,0-.594.4,1.729,1.729,0,0,0-.4.6,1.885,1.885,0,0,0-.144.738v2.4a1.885,1.885,0,0,0,.144.738,1.866,1.866,0,0,0,.4.607,1.974,1.974,0,0,0,.6.411,1.831,1.831,0,0,0,.751.149,1.921,1.921,0,0,0,.751-.149,1.818,1.818,0,0,0,.607-.411,2.112,2.112,0,0,0,.406-.607,1.887,1.887,0,0,0,.149-.738Zm.345,4.517a3.15,3.15,0,0,1-2.267.8,3.114,3.114,0,0,1-2.25-.791,2.794,2.794,0,0,1-.826-2.127v-2.4a2.761,2.761,0,0,1,.826-2.119,3.13,3.13,0,0,1,2.25-.786,3.573,3.573,0,0,1,1.28.218,2.827,2.827,0,0,1,.979.594,2.561,2.561,0,0,1,.633.917,3.012,3.012,0,0,1,.223,1.175v2.4a2.777,2.777,0,0,1-.847,2.119" transform="translate(972.766 6998.99)"/>
    <path id="Trazado_1540" data-name="Trazado 1540" d="M162.406,110.825h-.66a.158.158,0,0,1-.179-.179v-.764c0-.131-.048-.192-.144-.192a.363.363,0,0,0-.262.175c-.1.118-.227.262-.393.428a2.084,2.084,0,0,1-1.477.533,3.008,3.008,0,0,1-1.14-.214,2.812,2.812,0,0,1-.922-.594,2.74,2.74,0,0,1-.62-.926,3.086,3.086,0,0,1-.218-1.184v-4.77a.156.156,0,0,1,.175-.179h.839a.16.16,0,0,1,.179.179v4.77a1.829,1.829,0,0,0,.148.738,2.162,2.162,0,0,0,.4.607,1.9,1.9,0,0,0,1.337.559,1.958,1.958,0,0,0,1.376-.559,1.766,1.766,0,0,0,.4-.607,1.9,1.9,0,0,0,.144-.738v-4.77a.159.159,0,0,1,.179-.179h.839a.16.16,0,0,1,.179.179v7.509a.158.158,0,0,1-.179.179" transform="translate(978.94 6999.125)"/>
    <path id="Trazado_1541" data-name="Trazado 1541" d="M164.415,110.825h-.839a.158.158,0,0,1-.179-.179v-4.788a1.776,1.776,0,0,0-.153-.716,1.867,1.867,0,0,0-1.013-1.018,1.938,1.938,0,0,0-.751-.148,1.91,1.91,0,0,0-1.367.55,1.807,1.807,0,0,0-.393.594,1.921,1.921,0,0,0-.149.738v4.788c0,.122-.057.179-.175.179h-.843c-.109,0-.17-.057-.17-.179v-7.509a.157.157,0,0,1,.17-.179h.655c.114,0,.17.061.17.179v.712c0,.131.048.2.14.2a.355.355,0,0,0,.214-.114c.087-.079.192-.179.323-.3.2-.166.406-.319.616-.463a1.731,1.731,0,0,1,.957-.214,3.152,3.152,0,0,1,1.158.214,2.832,2.832,0,0,1,.939.6,2.736,2.736,0,0,1,.633.917,2.86,2.86,0,0,1,.236,1.171v4.788a.158.158,0,0,1-.179.179" transform="translate(985.65 6999.125)"/>
    <path id="Trazado_1542" data-name="Trazado 1542" d="M165.234,108.422a1.774,1.774,0,0,0-.153-.716,2.015,2.015,0,0,0-.4-.607,1.863,1.863,0,0,0-.607-.411,1.922,1.922,0,0,0-.751-.148,1.888,1.888,0,0,0-.76.148,1.922,1.922,0,0,0-.6.4,1.807,1.807,0,0,0-.393.594,1.916,1.916,0,0,0-.144.738v2.049a1.9,1.9,0,0,0,.546,1.345,1.96,1.96,0,0,0,.6.406,1.833,1.833,0,0,0,.751.153,1.925,1.925,0,0,0,.751-.153,1.852,1.852,0,0,0,.607-.406,2.071,2.071,0,0,0,.4-.607,1.831,1.831,0,0,0,.153-.738Zm1.018,4.967H165.6a.156.156,0,0,1-.175-.179v-.764c0-.131-.048-.192-.14-.192a.332.332,0,0,0-.214.122c-.083.083-.2.188-.341.319a6.231,6.231,0,0,1-.62.481,1.767,1.767,0,0,1-.965.214,3.034,3.034,0,0,1-1.158-.214,2.866,2.866,0,0,1-.913-.594,2.739,2.739,0,0,1-.62-.926,3.088,3.088,0,0,1-.218-1.184v-2.049a3.025,3.025,0,0,1,.21-1.153,2.753,2.753,0,0,1,1.472-1.52,2.656,2.656,0,0,1,1.1-.227,2.112,2.112,0,0,1,.559.066,1.447,1.447,0,0,1,.389.149,3.834,3.834,0,0,1,.729.607c.17.188.3.284.393.284s.144-.066.144-.2v-4.058a.155.155,0,0,1,.175-.175h.843a.155.155,0,0,1,.175.175v10.837c0,.122-.057.179-.175.179" transform="translate(991.894 6996.562)"/>
    <path id="Trazado_1543" data-name="Trazado 1543" d="M145.684,121h1.271c1.612,0,2.2-.93,2.2-2.713,0-1.808-.681-2.713-2.49-2.713h-.979Zm0-7.919h1.1a2,2,0,0,0,2.027-2.245c0-1.638-.633-2.494-1.979-2.494h-1.149Zm-3.032-7.234h4.495c3.25,0,4.691,1.664,4.691,4.67a3.786,3.786,0,0,1-2.1,3.687c1.538.686,2.442,1.909,2.442,4.18,0,2.909-1.293,5.106-4.74,5.106h-4.792Z" transform="translate(932.668 7008.846)"/>
    <rect id="Rectángulo_5305" data-name="Rectángulo 5305" width="2.735" height="17.643" transform="translate(1087.338 7114.689)"/>
    <path id="Trazado_1544" data-name="Trazado 1544" d="M154.839,106.873v13.148h-2.59V118.7c-1.153.978-1.739,1.564-3.329,1.564-1.441,0-2.3-1.048-2.3-2.761V106.873h2.739v10.191a.87.87,0,0,0,.979.952,3.177,3.177,0,0,0,1.756-.83V106.873Z" transform="translate(946.037 7012.311)"/>
    <path id="Trazado_1545" data-name="Trazado 1545" d="M154.821,111.9v-.681c0-1.516-.533-2.153-1.511-2.153s-1.516.638-1.516,2.153v.681Zm2.739,2.25h-5.766v1.9c0,1.516.537,2.149,1.516,2.149s1.511-.633,1.511-2.149v-.288h2.739c-.048,2.783-1.2,4.691-4.25,4.691-3.128,0-4.255-2-4.255-4.888v-3.861c0-2.887,1.127-4.888,4.255-4.888s4.25,2,4.25,4.888Z" transform="translate(954.232 7012.126)"/>
    <path id="Trazado_1546" data-name="Trazado 1546" d="M151.307,111.854V109.6h1.516v-3.543h2.739V109.6h1.83v2.25h-1.83v7.574c0,.686.293,1.075.93,1.075h.9v2.346a4.761,4.761,0,0,1-1.367.149c-2.053,0-3.2-.952-3.2-2.957v-8.186Z" transform="translate(961.816 7009.58)"/>
    <path id="Trazado_1547" data-name="Trazado 1547" d="M158.824,111.216c0-1.511-.537-2.149-1.511-2.149s-1.516.638-1.516,2.149v4.836c0,1.52.537,2.154,1.516,2.154s1.511-.633,1.511-2.154Zm-5.766.489c0-2.883,1.127-4.888,4.255-4.888s4.25,2,4.25,4.888v3.861c0,2.883-1.123,4.888-4.25,4.888s-4.255-2.005-4.255-4.888Z" transform="translate(967.714 7012.123)"/>
    <path id="Trazado_1548" data-name="Trazado 1548" d="M161.289,111.216c0-1.511-.537-2.149-1.511-2.149s-1.516.638-1.516,2.149v4.836c0,1.52.537,2.154,1.516,2.154s1.511-.633,1.511-2.154Zm-5.766.489c0-2.883,1.127-4.888,4.255-4.888s4.25,2,4.25,4.888v3.861c0,2.883-1.123,4.888-4.25,4.888s-4.255-2.005-4.255-4.888Z" transform="translate(976.017 7012.123)"/>
    <path id="Trazado_1549" data-name="Trazado 1549" d="M157.777,111.854V109.6h1.511v-3.543h2.734V109.6h1.835v2.25h-1.835v7.574c0,.686.3,1.075.93,1.075h.9v2.346a4.719,4.719,0,0,1-1.367.149c-2.053,0-3.2-.952-3.2-2.957v-8.186Z" transform="translate(983.609 7009.58)"/>
    <path id="Trazado_1550" data-name="Trazado 1550" d="M159.56,123.487V105.844H162.3v5.718a4.091,4.091,0,0,1,3.176-1.468c1.441,0,2.3,1.053,2.3,2.761v10.632h-2.739V113.3a.868.868,0,0,0-.978-.952,3.207,3.207,0,0,0-1.756.83v10.313Z" transform="translate(989.614 7008.846)"/>
    <path id="Trazado_1551" data-name="Trazado 1551" d="M163.419,107.506h.4c.341,0,.459-.1.459-.328s-.144-.293-.48-.293h-.38Zm0,1.372h-.467v-2.359h.891c.59,0,.917.188.917.7a.572.572,0,0,1-.572.629l.572,1.031h-.52l-.529-1.009h-.293Zm.376-2.844a1.668,1.668,0,1,0,1.6,1.669,1.6,1.6,0,0,0-1.6-1.669m-2.162,1.669a2.161,2.161,0,1,1,2.162,2.105,2.095,2.095,0,0,1-2.162-2.105" transform="translate(996.592 7008)"/>
    <path id="Trazado_1552" data-name="Trazado 1552" d="M217.46,136.643c.009-.616.013-1.227.013-1.865h-.035c-.245-12.855-1.909-20.513-7.775-27.179-6.054-6.875-17.35-6.958-17.35-6.958H190s-11.3.083-17.35,6.958c-5.866,6.67-7.531,14.323-7.775,27.179h-.035c0,.638,0,1.249.009,1.865s-.009,1.227-.009,1.87h.035c.245,12.855,1.9,20.513,7.775,27.179,6.054,6.871,17.35,6.954,17.35,6.954h2.315s11.3-.083,17.346-6.954c5.871-6.67,7.535-14.323,7.78-27.179h.035c0-.642,0-1.254-.013-1.87" transform="translate(1007.388 6991.321)" fill="#3257a4"/>
    <path id="Trazado_1553" data-name="Trazado 1553" d="M187.2,139.827l5.548,5.368-5.548,5.548Zm0-24.6,5.548,5.364-5.548,5.548ZM200.7,145.2l-12.209-12.209,12.117-12.672-18.866-18.587v24.6l-10.3-10.523-4.1,4.014,13,13.262L167.41,145.737l4.014,4.1,10.318-10.1v24.331Z" transform="translate(1015.818 6994.982)" fill="#fff"/>
  </g>
</svg>
