<svg xmlns="http://www.w3.org/2000/svg" xmlns:xlink="http://www.w3.org/1999/xlink" width="139.545" height="79.62" viewBox="0 0 139.545 79.62">
  <defs>
    <clipPath id="clip-path">
      <rect id="Rectángulo_5310" data-name="Rectángulo 5310" width="139.545" height="79.62" fill="none"/>
    </clipPath>
    <clipPath id="clip-path-2">
      <path id="Trazado_1573" data-name="Trazado 1573" d="M131.347,114.593v5H129.5v-5h-5.65v2.694h-1.233v-2.694h-5.658v5h-1.844v-5h-5.662v2.694h-1.237v-2.694h-5.65v5h-1.847v-5H95.064v2.694H93.831v-2.694H88.173v5H86.325v-5H80.663v2.694H79.43v-2.694H73.679v5H71.832v-5H66.174v2.694H64.941v-2.694H59.287v5H57.435v-5H51.781v2.694H50.544v-2.694H44.89v5H43.043v-5H37.388v2.694H36.159v-2.694H30.5v5H28.65v-5H22.992v2.694H21.759v-2.694H16.1v5H14.257v-5H8.193a5.3,5.3,0,0,0,0,10.594H137.148a5.3,5.3,0,0,0,0-10.594Z" transform="translate(-2.902 -114.593)" fill="none"/>
    </clipPath>
    <linearGradient id="linear-gradient" x1="0.029" y1="0.5" x2="0.972" y2="0.5" gradientUnits="objectBoundingBox">
      <stop offset="0" stop-color="#f5d900"/>
      <stop offset="0.115" stop-color="#f4d101"/>
      <stop offset="0.283" stop-color="#f2be05"/>
      <stop offset="0.484" stop-color="#ef9e0c"/>
      <stop offset="0.709" stop-color="#eb7215"/>
      <stop offset="0.952" stop-color="#e73921"/>
      <stop offset="1" stop-color="#e62e24"/>
    </linearGradient>
  </defs>
  <g id="Grupo_12049" data-name="Grupo 12049" transform="translate(-368.477 -7075.561)">
    <path id="Trazado_1554" data-name="Trazado 1554" d="M18.733,96.786v9.6l-7.54-9.6H9.925v11.973h1.318V98.938l7.73,9.821h1.078V96.786Z" transform="translate(385.694 6978.979)"/>
    <g id="Grupo_12020" data-name="Grupo 12020" transform="translate(368.477 7075.561)">
      <g id="Grupo_12019" data-name="Grupo 12019" clip-path="url(#clip-path)">
        <path id="Trazado_1555" data-name="Trazado 1555" d="M14.174,102.959v-.035a6.107,6.107,0,1,1,12.213-.035v.035a6.107,6.107,0,1,1-12.213.035m10.81,0v-.035a4.762,4.762,0,0,0-4.719-4.947,4.707,4.707,0,0,0-4.688,4.912v.035a4.762,4.762,0,0,0,4.723,4.943,4.7,4.7,0,0,0,4.684-4.908" transform="translate(29.391 -96.733)"/>
        <path id="Trazado_1556" data-name="Trazado 1556" d="M18.963,96.785h5.148a4.719,4.719,0,0,1,3.4,1.2,3.31,3.31,0,0,1,.924,2.361v.035c0,1.983-1.368,3.146-3.246,3.49l3.672,4.889H27.207l-3.471-4.653H20.312v4.653H18.963Zm5.028,6.106c1.8,0,3.08-.924,3.08-2.462v-.035c0-1.473-1.129-2.361-3.061-2.361h-3.7v4.858Z" transform="translate(43.111 -96.584)"/>
        <path id="Trazado_1557" data-name="Trazado 1557" d="M23.053,96.786h4.155c3.764,0,6.362,2.582,6.362,5.952v.039c0,3.366-2.6,5.983-6.362,5.983H23.053Zm4.155,10.725a4.635,4.635,0,0,0,4.962-4.7v-.031a4.662,4.662,0,0,0-4.962-4.742H24.4v9.477Z" transform="translate(54.828 -96.581)"/>
        <rect id="Rectángulo_5307" data-name="Rectángulo 5307" width="1.349" height="11.973" transform="translate(94.813 0.205)"/>
        <path id="Trazado_1558" data-name="Trazado 1558" d="M29.441,102.959v-.035a6.029,6.029,0,0,1,6.052-6.192,6.232,6.232,0,0,1,4.669,1.9l-.92.989a5.224,5.224,0,0,0-3.768-1.643,4.7,4.7,0,0,0-4.634,4.912v.035a4.725,4.725,0,0,0,4.634,4.943,5.2,5.2,0,0,0,3.869-1.731l.889.873a6.231,6.231,0,0,1-4.792,2.106,5.973,5.973,0,0,1-6-6.157" transform="translate(73.129 -96.733)"/>
        <rect id="Rectángulo_5308" data-name="Rectángulo 5308" width="2.636" height="11.973" transform="translate(0.541 22.664)"/>
        <path id="Trazado_1559" data-name="Trazado 1559" d="M5.386,102.6H7.813l5.612,7.37V102.6h2.6V114.57H13.785l-5.8-7.61v7.61h-2.6Z" transform="translate(4.215 -79.934)"/>
        <path id="Trazado_1560" data-name="Trazado 1560" d="M9.559,112.952l1.558-1.863a5.5,5.5,0,0,0,3.571,1.453c1.082,0,1.731-.425,1.731-1.129v-.035c0-.665-.414-1.009-2.412-1.523-2.412-.615-3.965-1.283-3.965-3.66v-.035c0-2.172,1.743-3.61,4.186-3.61a6.934,6.934,0,0,1,4.448,1.523L17.3,106.061a5.605,5.605,0,0,0-3.107-1.179c-1.013,0-1.542.46-1.542,1.044v.031c0,.788.514,1.044,2.582,1.577,2.431.63,3.8,1.5,3.8,3.59v.031c0,2.381-1.813,3.714-4.394,3.714a7.62,7.62,0,0,1-5.082-1.917" transform="translate(16.169 -80.062)"/>
        <path id="Trazado_1561" data-name="Trazado 1561" d="M13.445,109.438V102.6h2.636v6.775c0,1.948.974,2.96,2.578,2.96s2.586-.978,2.586-2.875V102.6h2.632v6.756c0,3.629-2.037,5.4-5.248,5.4s-5.183-1.793-5.183-5.318" transform="translate(27.302 -79.933)"/>
        <path id="Trazado_1562" data-name="Trazado 1562" d="M17.729,102.6h2.636v9.577h5.967v2.4h-8.6Z" transform="translate(39.574 -79.934)"/>
        <path id="Trazado_1563" data-name="Trazado 1563" d="M26.221,102.575h2.427l5.136,12.055H31.029l-1.1-2.682H24.868l-1.094,2.682H21.092Zm2.771,7.046L27.4,105.736l-1.588,3.884Z" transform="translate(49.21 -79.996)"/>
        <path id="Trazado_1564" data-name="Trazado 1564" d="M28.768,105.027H25.124V102.6h9.917v2.431H31.4v9.542H28.768Z" transform="translate(60.76 -79.935)"/>
        <rect id="Rectángulo_5309" data-name="Rectángulo 5309" width="2.628" height="11.973" transform="translate(101.383 22.664)"/>
        <path id="Trazado_1565" data-name="Trazado 1565" d="M31.339,108.769v-.035a6.191,6.191,0,0,1,6.381-6.192,6.136,6.136,0,0,1,6.346,6.157v.035a6.2,6.2,0,0,1-6.381,6.2,6.136,6.136,0,0,1-6.346-6.161m9.971,0v-.035a3.64,3.64,0,0,0-3.625-3.764,3.578,3.578,0,0,0-3.59,3.73v.035A3.638,3.638,0,0,0,37.72,112.5a3.582,3.582,0,0,0,3.59-3.73" transform="translate(78.566 -80.088)"/>
        <path id="Trazado_1566" data-name="Trazado 1566" d="M36.129,102.6h2.423l5.612,7.37V102.6h2.6V114.57H44.523l-5.8-7.61v7.61h-2.6Z" transform="translate(92.289 -79.934)"/>
        <path id="Trazado_1567" data-name="Trazado 1567" d="M9.881,118.763l.839-.993a5.688,5.688,0,0,0,4.1,1.7c1.612,0,2.671-.858,2.671-2.037V117.4c0-1.113-.6-1.747-3.111-2.276-2.756-.6-4.019-1.488-4.019-3.455v-.039c0-1.878,1.658-3.266,3.934-3.266a6.267,6.267,0,0,1,4.209,1.476l-.788,1.04a5.276,5.276,0,0,0-3.455-1.3c-1.554,0-2.547.854-2.547,1.932v.035c0,1.129.615,1.762,3.246,2.327,2.671.58,3.9,1.558,3.9,3.386v.035c0,2.052-1.708,3.386-4.085,3.386a7,7,0,0,1-4.893-1.917" transform="translate(17.092 -63.415)"/>
        <path id="Trazado_1568" data-name="Trazado 1568" d="M18.332,115.643l-4.978-7.235H15l4.039,5.987,4.07-5.987h1.573l-4.978,7.22v4.754H18.332Z" transform="translate(27.041 -63.287)"/>
        <path id="Trazado_1569" data-name="Trazado 1569" d="M17.372,118.763l.839-.993a5.688,5.688,0,0,0,4.1,1.7c1.612,0,2.671-.858,2.671-2.037V117.4c0-1.113-.6-1.747-3.111-2.276-2.756-.6-4.019-1.488-4.019-3.455v-.039c0-1.878,1.658-3.266,3.931-3.266a6.27,6.27,0,0,1,4.213,1.476l-.788,1.04a5.276,5.276,0,0,0-3.455-1.3c-1.554,0-2.547.854-2.547,1.932v.035c0,1.129.615,1.762,3.246,2.327,2.671.58,3.9,1.558,3.9,3.386v.035c0,2.052-1.708,3.386-4.085,3.386a7,7,0,0,1-4.893-1.917" transform="translate(38.553 -63.415)"/>
        <path id="Trazado_1570" data-name="Trazado 1570" d="M25.029,109.656H21.009v-1.248h9.407v1.248H26.4v10.725H25.029Z" transform="translate(48.973 -63.287)"/>
        <path id="Trazado_1571" data-name="Trazado 1571" d="M24.988,108.408h8.653v1.233h-7.3v4.089h6.535v1.233H26.337v4.186h7.39v1.233H24.988Z" transform="translate(60.372 -63.287)"/>
        <path id="Trazado_1572" data-name="Trazado 1572" d="M28.843,108.408h1.364l4.363,6.535,4.363-6.535H40.3v11.973H38.946v-9.7l-4.36,6.412H34.52l-4.36-6.392v9.678H28.843Z" transform="translate(71.415 -63.287)"/>
      </g>
    </g>
    <g id="Grupo_12022" data-name="Grupo 12022" transform="translate(368.477 7144.587)">
      <g id="Grupo_12021" data-name="Grupo 12021" clip-path="url(#clip-path-2)">
        <rect id="Rectángulo_5311" data-name="Rectángulo 5311" width="139.541" height="10.594" transform="translate(0 0)" fill="url(#linear-gradient)"/>
      </g>
    </g>
  </g>
</svg>
