<svg xmlns="http://www.w3.org/2000/svg" width="148.666" height="83.216" viewBox="0 0 148.666 83.216">
  <g id="Grupo_12039" data-name="Grupo 12039" transform="translate(-1349.529 -6693.369)">
    <path id="Trazado_1363" data-name="Trazado 1363" d="M201.548,48.092h2.883a7.121,7.121,0,0,0,4.638-1.244,4.262,4.262,0,0,0,1.558-3.4,4.364,4.364,0,0,0-1.5-3.358q-1.472-1.343-5.225-1.345h-2.357Zm0-13.247h1.457a5.407,5.407,0,0,0,3.814-1.148,4.464,4.464,0,0,0,1.209-3.389A4.263,4.263,0,0,0,206.788,27a5.177,5.177,0,0,0-3.6-1.133h-1.639Zm-4.663,17.627V21.584h4.643a20.424,20.424,0,0,1,4.942.48,7.394,7.394,0,0,1,3.136,1.624,8.383,8.383,0,0,1,2.059,2.939,8.772,8.772,0,0,1,.779,3.6,7.3,7.3,0,0,1-2.534,5.624,7.417,7.417,0,0,1,3.879,2.939,8.7,8.7,0,0,1-1.118,10.96,8.43,8.43,0,0,1-3.46,2.139,20.046,20.046,0,0,1-5.26.582Z" transform="translate(1152.735 6673.882)" fill="#d2091e"/>
    <path id="Trazado_1364" data-name="Trazado 1364" d="M225.657,23.717v5.508a12.93,12.93,0,0,0-8.366-3.374,10.639,10.639,0,0,0-8.022,3.419,11.535,11.535,0,0,0-3.283,8.32,11.262,11.262,0,0,0,3.283,8.2,10.838,10.838,0,0,0,8.047,3.343,9.844,9.844,0,0,0,4.183-.8,11.811,11.811,0,0,0,1.988-1.082,23.1,23.1,0,0,0,2.17-1.639v5.629a16.735,16.735,0,0,1-8.4,2.271,15.523,15.523,0,0,1-11.3-4.618,15.334,15.334,0,0,1-4.663-11.244,15.872,15.872,0,0,1,3.9-10.52,15.543,15.543,0,0,1,12.427-5.665,15.867,15.867,0,0,1,8.042,2.251" transform="translate(1170.603 6673.403)" fill="#d2091e"/>
    <path id="Trazado_1365" data-name="Trazado 1365" d="M201.548,55.647h2.094a17.354,17.354,0,0,0,5.225-.663,10.578,10.578,0,0,0,7.2-10.4,10.741,10.741,0,0,0-3.4-8.244q-3.065-2.815-9.028-2.822h-2.094Zm-4.663,4.38V29.144h6.484a23.643,23.643,0,0,1,7.359.921,13.71,13.71,0,0,1,5.26,3.055,14.8,14.8,0,0,1,4.78,11.466,15.012,15.012,0,0,1-10.222,14.582,23.748,23.748,0,0,1-7.263.86Z" transform="translate(1152.735 6704.56)"/>
    <path id="Trazado_1366" data-name="Trazado 1366" d="M219.725,33.523H207.343v7.425h12.023v4.38H207.343V55.652h12.382v4.38h-17.04V29.143h17.04Z" transform="translate(1176.271 6704.557)"/>
    <path id="Trazado_1367" data-name="Trazado 1367" d="M225.882,34.2,222.1,36.445a6.58,6.58,0,0,0-2.018-2.4,5.388,5.388,0,0,0-5.8.46A3.423,3.423,0,0,0,213,37.229q0,2.261,3.358,3.642l3.08,1.259a13.133,13.133,0,0,1,5.5,3.712,8.36,8.36,0,0,1,1.745,5.377,9.429,9.429,0,0,1-2.842,7.046,9.734,9.734,0,0,1-7.1,2.807,9.466,9.466,0,0,1-6.641-2.392,10.954,10.954,0,0,1-3.222-6.712l4.719-1.042a8.051,8.051,0,0,0,1.118,3.763,5.327,5.327,0,0,0,7.825.536,5.048,5.048,0,0,0,1.436-3.7,5.166,5.166,0,0,0-.243-1.644,4.3,4.3,0,0,0-.784-1.386,6.56,6.56,0,0,0-1.371-1.178,13.578,13.578,0,0,0-2-1.042L214.6,45.033q-6.35-2.678-6.343-7.835a7.411,7.411,0,0,1,2.66-5.817,9.606,9.606,0,0,1,6.621-2.357q5.333,0,8.34,5.179" transform="translate(1193.294 6704.077)"/>
    <rect id="Rect치ngulo_5276" data-name="Rect치ngulo 5276" width="4.653" height="31.111" transform="translate(1425.181 6733.476)"/>
    <rect id="Rect치ngulo_5277" data-name="Rect치ngulo 5277" width="148.666" height="4.567" transform="translate(1349.529 6772.017)" fill="#d2091e"/>
    <path id="Trazado_1368" data-name="Trazado 1368" d="M231.246,48.6h7.7a8.233,8.233,0,0,1-3.06,5.589,9.32,9.32,0,0,1-6.176,2.317,11.616,11.616,0,0,1-11.208-11.6,11.3,11.3,0,0,1,3.318-8.32,10.92,10.92,0,0,1,5.119-2.954V29.077a16.058,16.058,0,0,0-13.115,15.836A15.535,15.535,0,0,0,218.445,56.2a15.065,15.065,0,0,0,11.107,4.684,13.987,13.987,0,0,0,10.94-4.845,13.036,13.036,0,0,0,2.7-4.638,20.929,20.929,0,0,0,.824-6.161V44.215H231.246Z" transform="translate(1221.484 6704.288)"/>
    <path id="Trazado_1369" data-name="Trazado 1369" d="M243.4,30.832V52.3l-22.523-23.57V49.915h4.658V40.093L248.054,63.6V30.832Z" transform="translate(1250.075 6702.87)"/>
    <path id="Trazado_1370" data-name="Trazado 1370" d="M229.706,23.268V44.734L207.188,21.169V43.3h4.653V32.529l22.523,23.5V23.268Z" transform="translate(1194.545 6672.199)" fill="#d2091e"/>
  </g>
</svg>
