<svg xmlns="http://www.w3.org/2000/svg" width="160.787" height="50.312" viewBox="0 0 160.787 50.312">
  <g id="Grupo_12822" data-name="Grupo 12822" transform="translate(-918.574 -7479.804)">
    <path id="Trazado_2235" data-name="Trazado 2235" d="M14.243,552.638V549.48a2.8,2.8,0,0,1-2.8-2.8V529.611H8.284v17.068a5.965,5.965,0,0,0,5.959,5.959" transform="translate(926.778 6950.193)" fill="#3f76bb"/>
    <path id="Trazado_2236" data-name="Trazado 2236" d="M7.322,549.18a4.069,4.069,0,0,1-4.064-4.06v-4.066H7.322a4.063,4.063,0,1,1,0,8.126m0-11.285H3.258v-8H.1v15.444H.111a7.218,7.218,0,1,0,7.211-7.443" transform="translate(918.673 6950.474)" fill="#3f76bb"/>
    <path id="Trazado_2237" data-name="Trazado 2237" d="M18.228,548.26a6.34,6.34,0,0,0,6.331-6.333v-7.9H21.4v7.9a3.176,3.176,0,0,1-6.353,0v-7.9H11.891v7.9a6.342,6.342,0,0,0,6.337,6.333" transform="translate(930.349 6954.564)" fill="#3f76bb"/>
    <path id="Trazado_2238" data-name="Trazado 2238" d="M22.407,539.693a4.323,4.323,0,0,1,.46-.914,4.239,4.239,0,0,1,.651-.772,4.358,4.358,0,0,1,1.751-1l.08-.022v0q.1-.03.209-.054l.026-.008.054-.008.032-.008c.131-.024.239-.042.338-.052l.046-.006c.107-.01.211-.016.322-.018.036,0,.074,0,.109,0a3.673,3.673,0,0,1,2.112.653,1.318,1.318,0,0,1,.625,1.079c-.06.854-1.2,1.347-2.207,1.347H22.332Zm10.439,5.141-2.86-1.083-.012.022a4.339,4.339,0,0,1-7.463-.85l-.1-.223h4.454a7.66,7.66,0,0,0,1.885-.261,5.935,5.935,0,0,0,1.636-.718,3.824,3.824,0,0,0,1.222-5.264,6.423,6.423,0,0,0-4.094-2.528c-.129-.024-.261-.04-.394-.054-.209-.022-.42-.03-.631-.034l-.08,0-.066.006-.111.006H26.2c-.143,0-.293.008-.438.024-.046,0-.092.012-.137.02l-.1.014-.082.012c-.125.016-.257.034-.384.06a7.359,7.359,0,0,0-5.788,8.494l-.008,0c.012.066.024.131.038.2l0,.032h0l0,.024a7.336,7.336,0,0,0,13.536,2.11" transform="translate(937.544 6954.379)" fill="#3f76bb"/>
    <path id="Trazado_2239" data-name="Trazado 2239" d="M8.912,556.464a4.2,4.2,0,0,1-2.078.474,4.883,4.883,0,0,1-2.024-.4,4.439,4.439,0,0,1-1.531-1.115,5.09,5.09,0,0,1-.971-1.66,6.068,6.068,0,0,1-.34-2.064,6.183,6.183,0,0,1,.34-2.078,4.972,4.972,0,0,1,.985-1.674,4.569,4.569,0,0,1,1.544-1.115,4.909,4.909,0,0,1,2.024-.4,3.943,3.943,0,0,1,1.927.488,3.553,3.553,0,0,1,1.353,1.242l1.449-1.061a5.137,5.137,0,0,0-2.145-1.688,6.588,6.588,0,0,0-2.611-.571,7.387,7.387,0,0,0-2.816.515,6.232,6.232,0,0,0-2.145,1.437,6.5,6.5,0,0,0-1.381,2.175,7.841,7.841,0,0,0,0,5.465A6.5,6.5,0,0,0,1.873,556.6a6.228,6.228,0,0,0,2.145,1.437,7.348,7.348,0,0,0,2.816.516,6.19,6.19,0,0,0,2.858-.613A6.131,6.131,0,0,0,11.7,556.3l-1.4-1.059a4.275,4.275,0,0,1-1.393,1.226" transform="translate(918.574 6965.269)" fill="#3f76bb"/>
    <path id="Trazado_2240" data-name="Trazado 2240" d="M17.906,553.745a5.075,5.075,0,0,1-.971,1.674,4.439,4.439,0,0,1-1.531,1.115,4.876,4.876,0,0,1-2.024.4,4.776,4.776,0,0,1-2.008-.4,4.469,4.469,0,0,1-1.519-1.115,5.036,5.036,0,0,1-.969-1.674,6.309,6.309,0,0,1,0-4.1,5.035,5.035,0,0,1,.969-1.674,4.58,4.58,0,0,1,3.527-1.547,4.755,4.755,0,0,1,2.024.418,4.6,4.6,0,0,1,1.531,1.128,5.074,5.074,0,0,1,.971,1.674,6.309,6.309,0,0,1,0,4.1m.4-6.958a6.386,6.386,0,0,0-2.159-1.437,7.247,7.247,0,0,0-2.762-.515,7.159,7.159,0,0,0-2.733.515,6.4,6.4,0,0,0-2.161,1.437,6.56,6.56,0,0,0-1.407,2.175,7.638,7.638,0,0,0,0,5.465A6.559,6.559,0,0,0,8.487,556.6a6.39,6.39,0,0,0,2.161,1.437,7.12,7.12,0,0,0,2.733.516,7.207,7.207,0,0,0,2.762-.516A6.382,6.382,0,0,0,18.3,556.6a6.6,6.6,0,0,0,1.409-2.175,7.638,7.638,0,0,0,0-5.465,6.6,6.6,0,0,0-1.409-2.175" transform="translate(925.084 6965.269)" fill="#3f76bb"/>
    <path id="Trazado_2241" data-name="Trazado 2241" d="M21.325,544.836a5.114,5.114,0,0,0-2.6.711A4.266,4.266,0,0,0,16.95,547.4H16.9c0-.279-.01-.631-.028-1.059s-.046-.818-.082-1.172H15.01c.036.446.064.949.082,1.507s.028,1.013.028,1.365v10.18h1.859v-6.693a7.05,7.05,0,0,1,.328-2.273,4.708,4.708,0,0,1,.874-1.59,3.514,3.514,0,0,1,2.679-1.24,3.749,3.749,0,0,1,1.682.334,2.685,2.685,0,0,1,1.067.933,3.962,3.962,0,0,1,.561,1.437A9.733,9.733,0,0,1,24.332,551v7.223h1.859v-8.005a5.953,5.953,0,0,0-1.216-3.9,4.456,4.456,0,0,0-3.65-1.479" transform="translate(933.438 6965.27)" fill="#3f76bb"/>
    <path id="Trazado_2242" data-name="Trazado 2242" d="M28.9,544.836a5.114,5.114,0,0,0-2.6.711,4.25,4.25,0,0,0-1.775,1.855h-.056c0-.279-.01-.631-.028-1.059s-.046-.818-.082-1.172H22.587c.036.446.064.949.082,1.507s.028,1.013.028,1.365v10.18h1.859v-6.693a7.05,7.05,0,0,1,.328-2.273,4.708,4.708,0,0,1,.874-1.59A3.564,3.564,0,0,1,27,546.733a3.526,3.526,0,0,1,1.437-.306,3.746,3.746,0,0,1,1.68.334,2.685,2.685,0,0,1,1.067.933,3.962,3.962,0,0,1,.561,1.437A9.732,9.732,0,0,1,31.909,551v7.223h1.859v-8.005a5.953,5.953,0,0,0-1.216-3.9,4.455,4.455,0,0,0-3.65-1.479" transform="translate(940.941 6965.27)" fill="#3f76bb"/>
    <path id="Trazado_2243" data-name="Trazado 2243" d="M46.335,556.464a4.2,4.2,0,0,1-2.078.474,4.89,4.89,0,0,1-2.024-.4,4.439,4.439,0,0,1-1.531-1.115,5.051,5.051,0,0,1-.969-1.66,6.02,6.02,0,0,1-.342-2.064,6.134,6.134,0,0,1,.342-2.078,4.935,4.935,0,0,1,.983-1.674,4.569,4.569,0,0,1,1.544-1.115,4.909,4.909,0,0,1,2.024-.4,3.943,3.943,0,0,1,1.927.488,3.538,3.538,0,0,1,1.353,1.242l1.449-1.061a5.137,5.137,0,0,0-2.146-1.688,6.58,6.58,0,0,0-2.611-.571,7.387,7.387,0,0,0-2.816.515,6.232,6.232,0,0,0-2.146,1.437,6.5,6.5,0,0,0-1.381,2.175,7.841,7.841,0,0,0,0,5.465A6.5,6.5,0,0,0,39.3,556.6a6.228,6.228,0,0,0,2.146,1.437,7.347,7.347,0,0,0,2.816.516,6.184,6.184,0,0,0,2.858-.613,6.11,6.11,0,0,0,2.008-1.646l-1.393-1.059a4.3,4.3,0,0,1-1.4,1.226" transform="translate(955.632 6965.269)" fill="#3f76bb"/>
    <path id="Trazado_2244" data-name="Trazado 2244" d="M52.1,548.424v-1.59H48.49v-3.68H46.631v3.68H43.978v1.59h2.653v8.142a4.14,4.14,0,0,0,.314,1.757,2.893,2.893,0,0,0,.806,1.061,2.746,2.746,0,0,0,1.065.529,4.728,4.728,0,0,0,1.095.139,6.6,6.6,0,0,0,1.162-.1,5.566,5.566,0,0,0,1.025-.293l-.082-1.646a4.1,4.1,0,0,1-.806.306,3.137,3.137,0,0,1-.808.111,2.845,2.845,0,0,1-.764-.1,1.348,1.348,0,0,1-.617-.362,1.716,1.716,0,0,1-.4-.738,4.412,4.412,0,0,1-.135-1.2v-7.613Z" transform="translate(962.124 6963.604)" fill="#3f76bb"/>
    <path id="Trazado_2245" data-name="Trazado 2245" d="M32.127,549.393a5.082,5.082,0,0,1,1.1-1.479,5.189,5.189,0,0,1,1.266-.876,5.288,5.288,0,0,1,1.31-.444,4.68,4.68,0,0,1,3.594.711,2.071,2.071,0,0,1,.949,1.749c-.094,1.335-1.616,2.054-3,2.054H31.635a5.7,5.7,0,0,1,.492-1.716m4.6,7.561a5.19,5.19,0,0,1-4.207-2.269,5.937,5.937,0,0,1-.714-1.447c-.012-.034-.167-.631-.169-.631h5.535a7.365,7.365,0,0,0,1.793-.247,5.387,5.387,0,0,0,1.5-.661,3.342,3.342,0,0,0,1.483-2.122,3.093,3.093,0,0,0-.4-2.352,6.24,6.24,0,0,0-7.806-1.73,7.018,7.018,0,0,0-3.77,7.459l.036.235a6.931,6.931,0,0,0,12.332,2.687l-1.682-.637a5.263,5.263,0,0,1-3.935,1.714" transform="translate(948.169 6965.252)" fill="#3f76bb"/>
    <path id="Trazado_2246" data-name="Trazado 2246" d="M104.216,560.2a3.781,3.781,0,0,1-1.158,1.272,4.938,4.938,0,0,1-1.648.718,7.925,7.925,0,0,1-1.873.225,6.961,6.961,0,0,1-2.816-.575,5.22,5.22,0,0,1-2.237-1.982l-.044-.066,1.714-1.17.044.07a4.255,4.255,0,0,0,1.373,1.387,3.646,3.646,0,0,0,1.966.513,4.943,4.943,0,0,0,1.089-.121,3.125,3.125,0,0,0,.959-.378,2.028,2.028,0,0,0,.667-.653,1.7,1.7,0,0,0,.251-.927,1.417,1.417,0,0,0-.681-1.33,6.264,6.264,0,0,0-1.724-.671l-1.771-.414c-.227-.058-.533-.151-.908-.281a4.328,4.328,0,0,1-1.128-.591,3.582,3.582,0,0,1-.949-1.035,2.95,2.95,0,0,1-.4-1.578,3.732,3.732,0,0,1,.412-1.783,3.527,3.527,0,0,1,1.1-1.246,5.084,5.084,0,0,1,1.56-.716,6.755,6.755,0,0,1,1.8-.239,6.137,6.137,0,0,1,2.551.533A3.79,3.79,0,0,1,104.2,551l.032.062-1.765,1.168-.042-.078a3.322,3.322,0,0,0-1.083-1.246,2.873,2.873,0,0,0-1.644-.456,4.252,4.252,0,0,0-.937.107,2.819,2.819,0,0,0-.85.338,1.84,1.84,0,0,0-.6.569,1.522,1.522,0,0,0-.223.844,1.383,1.383,0,0,0,.6,1.262,6.18,6.18,0,0,0,1.887.711l1.855.442a4.526,4.526,0,0,1,2.3,1.256,3.283,3.283,0,0,1,.921,2.368,3.72,3.72,0,0,1-.44,1.853M91.83,556.483a5.909,5.909,0,0,1-11.818,0V548.95h1.972v7.533a3.936,3.936,0,0,0,7.871,0V548.95H91.83Zm15.4-15.468H76.183v21.067H74.2V541.015H54.055a3,3,0,0,0-2.991,2.991v21.632a3,3,0,0,0,2.991,2.991H57V548.96h1.988v2.064A4.78,4.78,0,0,1,59.964,550a6.666,6.666,0,0,1,1.29-.784,6.16,6.16,0,0,1,1.389-.45A7.014,7.014,0,0,1,64,548.628a7.434,7.434,0,0,1,2.814.517,6.507,6.507,0,0,1,3.644,3.63,7.537,7.537,0,0,1,0,5.489,6.491,6.491,0,0,1-3.644,3.63,7.432,7.432,0,0,1-2.814.52,7.06,7.06,0,0,1-1.357-.141,6.225,6.225,0,0,1-1.389-.448,6.583,6.583,0,0,1-1.29-.786,4.735,4.735,0,0,1-.979-1.023v8.614h48.244a3,3,0,0,0,2.991-2.991V544.006a3,3,0,0,0-2.991-2.991" transform="translate(969.141 6961.486)" fill="#3f76bb"/>
    <path id="Trazado_2247" data-name="Trazado 2247" d="M56.447,554.427a5.082,5.082,0,0,0,1.608,1.077,5.182,5.182,0,0,0,2.046.4,4.882,4.882,0,0,0,2-.4,4.541,4.541,0,0,0,1.511-1.075,4.773,4.773,0,0,0,.967-1.608,5.98,5.98,0,0,0,0-3.988,4.814,4.814,0,0,0-.967-1.608,4.6,4.6,0,0,0-1.511-1.075,4.913,4.913,0,0,0-2-.394,5.215,5.215,0,0,0-2.046.394,5.088,5.088,0,0,0-1.608,1.079,4.886,4.886,0,0,0-1.063,1.608,5.379,5.379,0,0,0,0,3.983,4.886,4.886,0,0,0,1.063,1.608" transform="translate(973.04 6966.18)" fill="#3f76bb"/>
  </g>
</svg>
