<svg xmlns="http://www.w3.org/2000/svg" width="152.399" height="50.192" viewBox="0 0 152.399 50.192">
  <g id="Grupo_12047" data-name="Grupo 12047" transform="translate(-1043.568 -6862.273)">
    <path id="Rectángulo_5278" data-name="Rectángulo 5278" d="M2.94,0H149.459a2.94,2.94,0,0,1,2.94,2.94v29.4a2.94,2.94,0,0,1-2.94,2.94H2.941A2.941,2.941,0,0,1,0,32.343V2.94A2.94,2.94,0,0,1,2.94,0Z" transform="translate(1043.568 6862.273)" fill="#185355"/>
    <path id="Trazado_1409" data-name="Trazado 1409" d="M159.034,74.521h-4.222v-13.6l-3.674,13.6h-3.922l-3.648-13.6v13.6h-4.222V56.51h6.545l3.275,12.278,3.405-12.278h6.463Z" transform="translate(917.127 6814.215)" fill="#fff"/>
    <path id="Trazado_1410" data-name="Trazado 1410" d="M158.387,60.106h-8.869v3.14h8.3V66.76h-8.3V70.9h9.707v3.622h-14.3V56.51h13.464Z" transform="translate(935.773 6814.216)" fill="#fff"/>
    <path id="Trazado_1411" data-name="Trazado 1411" d="M162.626,60.106h-4.678V74.521h-4.6V60.106h-4.73v-3.6h14.007Z" transform="translate(948.127 6814.216)" fill="#fff"/>
    <path id="Trazado_1412" data-name="Trazado 1412" d="M160.832,61.348l-2.245,6.923h4.543ZM157.5,71.6l-1,2.919h-4.838l6.789-18.007h4.678l7.006,18.007H165.24l-.973-2.919Z" transform="translate(958.305 6814.216)" fill="#fff"/>
    <path id="Trazado_1413" data-name="Trazado 1413" d="M161.062,70.734h7.058v3.787H156.493V56.51h4.569Z" transform="translate(974.453 6814.216)" fill="#fff"/>
    <path id="Trazado_1414" data-name="Trazado 1414" d="M164.522,70.734h7.058v3.787H159.953V56.51h4.569Z" transform="translate(986.021 6814.216)" fill="#fff"/>
    <rect id="Rectángulo_5279" data-name="Rectángulo 5279" width="4.6" height="18.011" transform="translate(1160.97 6870.727)" fill="#fff"/>
    <path id="Trazado_1415" data-name="Trazado 1415" d="M178.163,62.875c-1-1.868-2.163-2.706-3.839-2.706-2.654,0-4.382,2.219-4.382,5.624,0,3.544,1.842,5.924,4.6,5.924,1.7,0,2.78-.812,3.809-2.84l3.679,1.759a9.594,9.594,0,0,1-2.054,2.784,8.028,8.028,0,0,1-5.651,2.054c-5.247,0-8.982-4.026-8.982-9.733,0-5.438,3.7-9.355,8.847-9.355,3.266,0,5.677,1.459,7.544,4.6Z" transform="translate(1004.037 6813.802)" fill="#fff"/>
    <path id="Rectángulo_5280" data-name="Rectángulo 5280" d="M1.532,0H75.743a1.532,1.532,0,0,1,1.532,1.532v15.33a1.532,1.532,0,0,1-1.532,1.532H1.533A1.533,1.533,0,0,1,0,16.861V1.532A1.532,1.532,0,0,1,1.532,0Z" transform="translate(1080.048 6893.688)" fill="#fff"/>
    <path id="Trazado_1416" data-name="Trazado 1416" d="M222.346,73.834h-.387a6.265,6.265,0,0,1-6.272,6.267H151.725a6.267,6.267,0,0,1-6.267-6.267V68.748a6.273,6.273,0,0,1,6.267-6.272h63.963a6.266,6.266,0,0,1,6.272,6.272v5.086h.773V68.748a7.051,7.051,0,0,0-7.045-7.04H151.725a7.039,7.039,0,0,0-7.04,7.04v5.086a7.038,7.038,0,0,0,7.04,7.036h63.963a7.042,7.042,0,0,0,7.045-7.036Z" transform="translate(934.975 6831.595)" fill="#185355"/>
    <path id="Trazado_1417" data-name="Trazado 1417" d="M151.6,65.777c-.017-1.129-.738-1.759-2.015-1.759-.99,0-1.642.465-1.642,1.186,0,.573.378.847,1.642,1.155l1.655.4c1.333.339,2.072,1.1,2.072,2.159,0,1.494-1.477,2.541-3.514,2.541-2.106,0-3.509-1.064-3.64-2.814l1.585-.248c.091,1.455.669,2,2.185,2,1.2,0,1.885-.486,1.885-1.329,0-.634-.339-.938-1.294-1.155l-1.459-.326a4.13,4.13,0,0,1-1.907-.734,1.861,1.861,0,0,1-.7-1.5c0-1.368,1.368-2.41,3.188-2.41,1.924,0,3.24,1.008,3.457,2.658Z" transform="translate(939.9 6835.704)" fill="#185355"/>
    <path id="Trazado_1418" data-name="Trazado 1418" d="M152.174,66.15h-1.442v5.042c-.013.686.074.795.543.795a3.992,3.992,0,0,0,.955-.148v1.173a6.879,6.879,0,0,1-1.425.161c-1.151,0-1.529-.378-1.529-1.511V66.15H148V64.96h1.281V62.406h1.442V64.96h1.455Z" transform="translate(946.045 6833.928)" fill="#185355"/>
    <path id="Trazado_1419" data-name="Trazado 1419" d="M149.348,71.122V63.091h1.442v1.372a3.1,3.1,0,0,1,2.862-1.5v1.481c-.3,0-.4-.022-.578-.022a2.1,2.1,0,0,0-2.285,2.38v4.317Z" transform="translate(950.565 6835.797)" fill="#185355"/>
    <path id="Trazado_1420" data-name="Trazado 1420" d="M152.138,62.994v4.882c0,1.529.452,2.141,1.6,2.141a2.114,2.114,0,0,0,2.254-2.324v-4.7h1.438v8.031h-1.438V69.943a3.416,3.416,0,0,1-2.736,1.316c-1.659,0-2.562-1.06-2.562-3.045V62.994Z" transform="translate(955.071 6835.894)" fill="#185355"/>
    <path id="Trazado_1421" data-name="Trazado 1421" d="M158.761,65.872a1.971,1.971,0,0,0-2.106-1.855c-1.477,0-2.393,1.225-2.393,3.205,0,1.907.951,3.114,2.484,3.114,1.281,0,1.872-.63,2.163-2.215l1.525.182a3.5,3.5,0,0,1-3.726,3.149c-2.358,0-3.961-1.729-3.961-4.3a3.89,3.89,0,0,1,3.87-4.213,3.538,3.538,0,0,1,3.679,2.827Z" transform="translate(961.925 6835.7)" fill="#185355"/>
    <path id="Trazado_1422" data-name="Trazado 1422" d="M158.854,66.15h-1.442v5.042c-.017.686.074.795.543.795a3.964,3.964,0,0,0,.951-.148v1.173a6.84,6.84,0,0,1-1.42.161c-1.155,0-1.533-.378-1.533-1.511V66.15h-1.277V64.96h1.277V62.406h1.442V64.96h1.459Z" transform="translate(968.377 6833.928)" fill="#185355"/>
    <path id="Trazado_1423" data-name="Trazado 1423" d="M157.469,62.994v4.882c0,1.529.452,2.141,1.6,2.141a2.111,2.111,0,0,0,2.25-2.324v-4.7h1.442v8.031h-1.442V69.943a3.41,3.41,0,0,1-2.736,1.316c-1.655,0-2.558-1.06-2.558-3.045V62.994Z" transform="translate(972.894 6835.894)" fill="#185355"/>
    <path id="Trazado_1424" data-name="Trazado 1424" d="M158.18,71.122V63.091h1.442v1.372a3.1,3.1,0,0,1,2.862-1.5v1.481c-.3,0-.4-.022-.578-.022a2.1,2.1,0,0,0-2.285,2.38v4.317Z" transform="translate(980.092 6835.797)" fill="#185355"/>
    <path id="Trazado_1425" data-name="Trazado 1425" d="M163.243,64.018c-1.242.013-2.05.882-2.25,2.41h4.5c-.2-1.529-1.012-2.41-2.254-2.41m-2.285,3.418c.109,1.82,1.064,2.9,2.576,2.9,1.025,0,1.694-.578,2.107-1.785l1.386.182a3.677,3.677,0,0,1-3.583,2.719,3.954,3.954,0,0,1-4.017-4.287c0-2.576,1.533-4.23,3.909-4.23a3.456,3.456,0,0,1,3.479,2.536,6.724,6.724,0,0,1,.269,1.963Z" transform="translate(984.255 6835.704)" fill="#185355"/>
  </g>
</svg>
