<svg xmlns="http://www.w3.org/2000/svg" width="226.829" height="30.467" viewBox="0 0 226.829 30.467">
  <g id="Grupo_12304" data-name="Grupo 12304" transform="translate(-363.496 -847.997)">
    <path id="Unión_1" data-name="Unión 1" d="M65.414,16.267V1.905a1.826,1.826,0,0,1,3.652,0V16.267a9.793,9.793,0,0,0,19.583,0V1.905a1.826,1.826,0,0,1,3.651,0V16.267a13.445,13.445,0,0,1-26.886,0Zm66.808,10.567L122.509,2.441a1.741,1.741,0,0,1,.03-1.371,1.8,1.8,0,0,1,1.009-.948A1.852,1.852,0,0,1,124.209,0a1.815,1.815,0,0,1,1.7,1.141l9.713,24.4a.328.328,0,0,0,.333.227.318.318,0,0,0,.328-.223l9.585-24.4a1.806,1.806,0,0,1,.964-.994,1.844,1.844,0,0,1,1.4-.032,1.785,1.785,0,0,1,1.011.945,1.749,1.749,0,0,1,.035,1.37l-9.584,24.4a4.031,4.031,0,0,1-7.471,0Zm-12.068,1.372-9.713-24.4a.327.327,0,0,0-.332-.227.322.322,0,0,0-.33.221l-9.586,24.4a1.777,1.777,0,0,1-.96.991,1.837,1.837,0,0,1-1.4.035,1.809,1.809,0,0,1-1.012-.946,1.749,1.749,0,0,1-.033-1.37l9.585-24.4a4.031,4.031,0,0,1,7.471,0l9.712,24.393a1.743,1.743,0,0,1-.031,1.369,1.784,1.784,0,0,1-1.007.949,1.835,1.835,0,0,1-2.365-1.02Zm49.182,1.022a1.782,1.782,0,0,1-1.046-2.316l9.585-24.4a4.031,4.031,0,0,1,7.471,0l9.586,24.4a1.8,1.8,0,0,1,.122.63v.026a1.8,1.8,0,0,1-1.168,1.659,1.847,1.847,0,0,1-2.362-1.026L181.94,3.8a.356.356,0,0,0-.659,0L171.7,28.2a1.827,1.827,0,0,1-1.7,1.147A1.86,1.86,0,0,1,169.336,29.229Zm-12.47-1.672V1.905a1.826,1.826,0,0,1,3.651,0V27.557a1.826,1.826,0,0,1-3.651,0ZM44.179,29.348A14.832,14.832,0,0,1,29.23,14.673a14.953,14.953,0,0,1,29.9,0,14.527,14.527,0,0,1-5.179,11.092H57.3a1.792,1.792,0,1,1,0,3.583Zm-11.3-14.675a11.3,11.3,0,0,0,22.6,0,11.3,11.3,0,0,0-22.6,0ZM23.358,28.2,13.772,3.8a.319.319,0,0,0-.328-.221.325.325,0,0,0-.331.221L3.529,28.2a1.791,1.791,0,0,1-.964.991,1.816,1.816,0,0,1-.739.155,1.846,1.846,0,0,1-.656-.119,1.8,1.8,0,0,1-1.013-.946,1.749,1.749,0,0,1-.033-1.37l9.584-24.4a4.032,4.032,0,0,1,7.472,0l9.584,24.4a1.749,1.749,0,0,1-.033,1.37,1.81,1.81,0,0,1-1.013.946A1.844,1.844,0,0,1,23.358,28.2Z" transform="translate(364.002 848.503)" stroke="rgba(0,0,0,0)" stroke-width="1"/>
    <g id="Grupo_12302" data-name="Grupo 12302" transform="translate(563.294 866.104)">
      <path id="Trazado_1708" data-name="Trazado 1708" d="M6.308,6.721,2.4,5.032A1.393,1.393,0,0,1,1.59,4.008a1.234,1.234,0,0,1,.337-1.125A1.356,1.356,0,0,1,2.9,2.492h4.27a.751.751,0,0,0,0-1.5H2.9A2.866,2.866,0,0,0,.87,1.817,2.716,2.716,0,0,0,.114,4.286,2.894,2.894,0,0,0,1.808,6.41L5.712,8.1a1.391,1.391,0,0,1,.814,1.024,1.234,1.234,0,0,1-.337,1.125,1.354,1.354,0,0,1-.977.391H.751a.751.751,0,1,0,0,1.5H5.212a2.866,2.866,0,0,0,2.033-.826A2.716,2.716,0,0,0,8,8.845,2.9,2.9,0,0,0,6.308,6.721" transform="translate(0 -0.637)"/>
      <path id="Trazado_1709" data-name="Trazado 1709" d="M33.139.991H29.127a.75.75,0,0,0-.75.751V11.39a.751.751,0,1,0,1.5,0V7.317h3.26a3.163,3.163,0,1,0,0-6.326m0,4.824h-3.26V2.492h3.26a1.661,1.661,0,1,1,0,3.323" transform="translate(-18.247 -0.637)"/>
      <path id="Trazado_1710" data-name="Trazado 1710" d="M55.5,1.216a1.793,1.793,0,0,0-3.4.009l-3.026,9.3a.751.751,0,0,0,1.428.464L53.521,1.7a.277.277,0,0,1,.277-.2.273.273,0,0,1,.273.189l3.025,9.3a.751.751,0,0,0,.714.518.74.74,0,0,0,.232-.037.751.751,0,0,0,.482-.946Z" transform="translate(-31.529)"/>
    </g>
  </g>
</svg>
