<svg xmlns="http://www.w3.org/2000/svg" width="33.676" height="33.51" viewBox="0 0 33.676 33.51">
  <g id="_001-editar" data-name="001-editar" transform="translate(0.075 0.045)">
    <path id="Trazado_1640" data-name="Trazado 1640" d="M30.731,56.735a.829.829,0,0,0-.829.829v7.363a2.49,2.49,0,0,1-2.488,2.488H4.146a2.49,2.49,0,0,1-2.488-2.488V43.318A2.491,2.491,0,0,1,4.146,40.83h7.363a.829.829,0,1,0,0-1.658H4.146A4.151,4.151,0,0,0,0,43.318v21.61a4.151,4.151,0,0,0,4.146,4.146H27.414a4.151,4.151,0,0,0,4.146-4.146V57.565A.829.829,0,0,0,30.731,56.735Zm0,0" transform="translate(0 -35.684)" fill="#5d5c5c" stroke="#e9ecee" stroke-width="0.15"/>
    <path id="Trazado_1641" data-name="Trazado 1641" d="M130.45,1.354a3.732,3.732,0,0,0-5.277,0L110.378,16.148a.829.829,0,0,0-.213.365l-1.945,7.024a.829.829,0,0,0,1.02,1.021l7.024-1.946a.829.829,0,0,0,.365-.213L131.423,7.6a3.736,3.736,0,0,0,0-5.277ZM112.185,16.687,124.293,4.579l3.9,3.9L116.09,20.592Zm-.78,1.565,3.12,3.12-4.315,1.2ZM130.25,6.432l-.879.879-3.905-3.905.88-.879a2.073,2.073,0,0,1,2.932,0l.973.973A2.076,2.076,0,0,1,130.25,6.432Zm0,0" transform="translate(-99.218)" fill="#5d5c5c" stroke="#e9ecee" stroke-width="0.15"/>
  </g>
</svg>
