<svg xmlns="http://www.w3.org/2000/svg" width="16.98" height="16.98" viewBox="0 0 16.98 16.98">
  <path id="Shape" d="M8.911,1.169a.586.586,0,0,0-.826,0L.179,9.076a.586.586,0,0,0,0,.826l7.907,7.907a.586.586,0,0,0,.826,0L16.818,9.9a.586.586,0,0,0,0-.826Zm4.117,6.39L10.256,9.638a.293.293,0,0,1-.466-.293L9.963,8.32H7.327a.293.293,0,0,0-.293.293v4.393a.293.293,0,0,1-.293.293H5.57a.293.293,0,0,1-.293-.293V7.442a.879.879,0,0,1,.879-.879H9.963L9.79,5.526a.293.293,0,0,1,.466-.293l2.773,2.079a.149.149,0,0,1,0,.246Z" transform="translate(-0.008 -0.998)"/>
</svg>
