<svg xmlns="http://www.w3.org/2000/svg" width="41.522" height="32.791" viewBox="0 0 41.522 32.791">
  <path id="Trazado_1644" data-name="Trazado 1644" d="M329.072,26.353l-7.6,4.512V14.731l5.462,3.289a4.43,4.43,0,0,1,2.134,3.776ZM292.059,41.384a1.8,1.8,0,0,1-.629-.118l16.451-9.134a3.639,3.639,0,0,1,3.551,0l16.451,9.134a1.8,1.8,0,0,1-.629.118Zm.315-23.364,5.462-3.29V30.865l-7.6-4.512V21.8a4.43,4.43,0,0,1,2.134-3.776M290.4,40.3a1.8,1.8,0,0,1-.157-.734V27.916l10.851,6.445Zm9.466-29.016h19.587a.683.683,0,0,1,.682.682v19.7l-3.27,1.942-4.775-2.652a4.986,4.986,0,0,0-4.86,0l-4.775,2.652-3.27-1.942v-19.7a.683.683,0,0,1,.682-.682M328.915,40.3l-10.694-5.937,10.851-6.445V39.565a1.8,1.8,0,0,1-.157.734m-1.284-23.431-6.155-3.707v-1.2a2.029,2.029,0,0,0-2.027-2.027H299.863a2.029,2.029,0,0,0-2.027,2.027V13.16l-6.155,3.708A5.785,5.785,0,0,0,288.9,21.8V39.565a3.168,3.168,0,0,0,3.164,3.164h35.194a3.168,3.168,0,0,0,3.164-3.164V21.8a5.785,5.785,0,0,0-2.786-4.929" transform="translate(-288.895 -9.938)" fill="#5d5c5c"/>
</svg>
