<svg id="Grupo_1346" data-name="Grupo 1346" xmlns="http://www.w3.org/2000/svg" xmlns:xlink="http://www.w3.org/1999/xlink" width="23.459" height="16.916" viewBox="0 0 23.459 16.916">
  <defs>
    <clipPath id="clip-path">
      <path id="Trazado_861" data-name="Trazado 861" d="M0-90.152H23.459v-16.916H0Z" transform="translate(0 107.068)" fill="#575757"/>
    </clipPath>
  </defs>
  <g id="Grupo_1345" data-name="Grupo 1345" transform="translate(0 0)" clip-path="url(#clip-path)">
    <g id="Grupo_1343" data-name="Grupo 1343" transform="translate(0 0)">
      <path id="Trazado_859" data-name="Trazado 859" d="M0-53.963v-3.253q.021-.214.041-.428c.094-.956.145-1.919.291-2.867A3.629,3.629,0,0,1,3.5-63.665c1-.13,2-.222,3.008-.274,2.6-.135,5.2-.2,7.807-.1a52.316,52.316,0,0,1,5.526.369,3.617,3.617,0,0,1,3.253,3.008c.141.677.2,1.373.273,2.062.048.43.063.865.093,1.3v3.3c-.012.082-.029.163-.036.246-.065.821-.11,1.644-.2,2.463a4.545,4.545,0,0,1-.712,2.195,3.72,3.72,0,0,1-2.927,1.6c-1.757.128-3.515.275-5.275.31-2.2.044-4.4.023-6.59-.047-1.453-.046-2.908-.182-4.351-.363A3.475,3.475,0,0,1,.414-50.359C.253-51.117.185-51.9.094-52.667.043-53.1.03-53.53,0-53.963m12.293-8.327c-2.028.056-3.441.074-4.852.141-1.166.056-2.331.149-3.492.266A1.828,1.828,0,0,0,2.14-60.218a13.653,13.653,0,0,0-.21,1.633,38.65,38.65,0,0,0-.04,5.242,22.1,22.1,0,0,0,.319,2.608,1.636,1.636,0,0,0,1.284,1.293,2.889,2.889,0,0,0,.585.105c1.706.111,3.411.273,5.118.306,2.228.043,4.458.008,6.686-.047,1.2-.029,2.407-.145,3.606-.265a1.839,1.839,0,0,0,1.853-1.774,18.227,18.227,0,0,0,.225-2.253c.035-1.511.047-3.024,0-4.534a17.245,17.245,0,0,0-.311-2.562A1.626,1.626,0,0,0,19.9-61.794a7.455,7.455,0,0,0-1.2-.177c-2.34-.125-4.681-.234-6.408-.318" transform="translate(0 64.088)" fill="#575757"/>
    </g>
    <g id="Grupo_1344" data-name="Grupo 1344" transform="translate(9.41 4.774)">
      <path id="Trazado_860" data-name="Trazado 860" d="M-34.1-19.727l-6.4,3.7v-7.4l6.4,3.7" transform="translate(40.499 23.428)" fill="#575757"/>
    </g>
  </g>
</svg>
