<svg xmlns="http://www.w3.org/2000/svg" width="174" height="581" viewBox="0 0 174 581">
  <g id="Grupo_14105" data-name="Grupo 14105" transform="translate(-773 -2842)">
    <g id="Grupo_13343" data-name="Grupo 13343" transform="translate(0 2348)">
      <rect id="Rectángulo_5366" data-name="Rectángulo 5366" width="174" height="581" transform="translate(773 494)" fill="#fff"/>
      <path id="Trazado_2049" data-name="Trazado 2049" d="M78.494.2Q92.028,5.976,92.32,24.488,86.666,42.741,85.4,47.767,80,59.908,93.5,67.5q36.768,10.778,37.1,31.2,10.231,37.487,4.549,78.933.674,43.052-8.094,55.66,5.243,55.088-12.648,59.2m-4.838-165.575q-8.621,38.505,2.482,89.059Q123.3,283.255,100.3,330.383q-1.026,23.263,6.816,38.947,5.228,19.444-15.469,61.851-2.734,17.129,11.754,24.731,5.535,3.7.619,6.182l-57.078-.624m65.117-314.628a433.8,433.8,0,0,1,0,71.588m9.647-44.5,6.316.739M71.624,227.7l.739,112.832c2.062,7.03,5.158,17.711,0,33.37a127.36,127.36,0,0,0,6.656,30.818q-1.161,27.63-4.8,28.571-.315,7.055,2.956,10.386-3.318,12.208-.739,17.436M58.222,250.562a16.653,16.653,0,0,0,13.452-4.908q6.1,7.1,15.649,4m-15.649,90.4c-6,15.1-3.216,23.473.549,32.191q2.988,6.411-2.906,34.378a52.659,52.659,0,0,0,4.544,26.189m.624,6.886c-.689,2.527-1.4,2.731-2.492,3.98a27.649,27.649,0,0,1,.624,18.085" transform="translate(780.314 546.951)" fill="none" stroke="#000" stroke-width="1"/>
    </g>
    <g id="Grupo_13277" data-name="Grupo 13277" transform="translate(0 -8.051)">
      <path id="Trazado_2034" data-name="Trazado 2034" d="M145.423,93.366a5.355,5.355,0,1,1-5.355,5.355,5.353,5.353,0,0,1,5.355-5.355" transform="translate(693.434 3275.367)" fill="#e6e6e6"/>
      <path id="Trazado_2035" data-name="Trazado 2035" d="M153.274,93.366a5.355,5.355,0,1,1-5.355,5.355,5.353,5.353,0,0,1,5.355-5.355" transform="translate(724.689 3275.367)" fill="#e6e6e6"/>
      <path id="Trazado_2036" data-name="Trazado 2036" d="M155.365,23.32a9.713,9.713,0,1,1-9.713,9.713,9.716,9.716,0,0,1,9.713-9.713" transform="translate(715.665 2996.496)" fill="#e6e6e6"/>
      <path id="Trazado_2037" data-name="Trazado 2037" d="M155.365,31.357a9.713,9.713,0,1,1-9.713,9.713,9.71,9.71,0,0,1,9.713-9.713" transform="translate(715.665 3028.496)" fill="#74d8dd"/>
      <path id="Trazado_2038" data-name="Trazado 2038" d="M148.7,23.32a9.713,9.713,0,1,1-9.713,9.713A9.716,9.716,0,0,1,148.7,23.32" transform="translate(689.134 2996.496)" fill="#e6e6e6"/>
      <path id="Trazado_2039" data-name="Trazado 2039" d="M148.7,31.357a9.713,9.713,0,1,1-9.713,9.713,9.71,9.71,0,0,1,9.713-9.713" transform="translate(689.134 3028.496)" fill="#74d8dd"/>
    </g>
  </g>
</svg>
