<svg xmlns="http://www.w3.org/2000/svg" xmlns:xlink="http://www.w3.org/1999/xlink" width="640" height="600" viewBox="0 0 640 600">
  <defs>
    <clipPath id="clip-path">
      <path id="Trazado_2515" data-name="Trazado 2515" d="M-.354,352.908,128.6,352.79,128.956-.118,0,0Z" fill="#74d8dd"/>
    </clipPath>
  </defs>
  <g id="Grupo_13335" data-name="Grupo 13335" transform="translate(-974 -1268)">
    <rect id="Rectángulo_5361" data-name="Rectángulo 5361" width="640" height="600" transform="translate(974 1268)" fill="#fff" opacity="0"/>
    <g id="Silueta_Estirada" data-name="Silueta Estirada" transform="translate(1577.259 1645.836) rotate(-178)">
      <g id="Grupo_12858" data-name="Grupo 12858" transform="matrix(0.017, -1, 1, 0.017, 0.129, 128.829)" opacity="0.772">
        <g id="Grupo_12857" data-name="Grupo 12857" transform="translate(-0.109 -0.002)" clip-path="url(#clip-path)">
          <g id="Grupo_12856" data-name="Grupo 12856" transform="translate(0 -0.001)">
            <path id="Trazado_2514" data-name="Trazado 2514" d="M128.352,98.457c-2.256-11.978-4.283-25.345-5.995-37.385-2.226-15.656-10.8-28.184-27.777-28.169-1.27-.092-3.387-.266-6.018-.474a30.671,30.671,0,0,0,.457-4.583C89.3,12.657,78.5.166,64.878-.056S39.99,11.857,39.706,27.046a30.465,30.465,0,0,0,.527,6.166c-5.186.811-11.478,1.8-19.223,2.925-6.1,2-13.243,7.128-14.663,13.448C3.136,63.879-.108,86.91-.065,105.683c-.465,2.271,3.167,16.591,4.009,18.768,2.624,11.6,9.3,21.114,14.113,34.056,1.408,7.646,5.565,12.8,7.056,17.924,0,0,3.416,9.68,4.229,15.439,1.012,7.164,4.232,11.836,4.226,18.073-.008,8.343,1.728,19.335-.238,30a21.193,21.193,0,0,0,.166,7.777c2.93,14.819,5.725,29.676,9.224,44.367,2.258,9.479,5.111,20.048,1.564,29.09C41.02,326,38.935,328.8,35.783,333.7c-5.021,7.8-2.84,11.126.379,16.066,2.008.777,4.694.419,6.271,1.605,3.844,2.893,6.458,1.1,8.189-1.908,3.084-5.365,7.242-10.369,6.689-17.252-.154-1.92,1.033-4.084,2.009-5.931,3.406-6.443,2.521-13.241,1.972-20-.456-5.608-1.727-11.217-1.536-16.792a73.381,73.381,0,0,1,2.726-18.836c4.193-13.684-.476-19.878-2.551-33.615-.479-3.17,2.6-13.982,3.291-17.016,5.3-23.159,4.323-32.355,4.345-54.6,2.234,9.487,1.08,10.941,3.516,20.855,2.107,15.295,1.9,22.139,4.87,34.632.489,2.058-.215,12.535-.459,14.729-1.129,10.169-1.594,14.887-1.44,25.031.144,9.478,1.867,11.385,3.3,20.855,1.056,6.987-.18,18.559-2.209,25.54-1.47,5.061-2,11.791.261,16.178,4.066,7.9,1.886,17.238,7.9,24.7,3.631,4.5,4.011,6.167,9.537,3.855a3.311,3.311,0,0,1,1.723-.2c5.484.914,6.387-5.087,8.408-8.913,1.349-2.554-.63-5.848-2.113-9.036-2.708-5.822-2.306-5.6-5.648-11.12-2.823-6.951-4.6-18.706-1.952-26.246,9.639-27.488,14.2-55.486,9.656-84.523-.468-2.995.7-7.951,1.4-10.913,2.128-5.564,1.428-13.211,3.776-21.557a8.523,8.523,0,0,1,.18-3.827c5.382-12.37,9.722-36.516,14.729-49.028,3.558-8.9,7.208-18.113,5.352-27.971M24.289,126.141c-.465-2.254-.7-3.347-.916-4.444-1.559-8.051-2.276-4.474-3.635-12.557-.322-1.923,1.107-12.2,1.682-14.115,1.143-3.812,2.357-11.171,4.007-15.788,5.652,9.874,1.563,34.428-1.138,46.9m84.031-17.3c-1.925,4.281-3.688,28.147-4.921,32.913-2.681-13.418-6.615-45.49-1.576-60.5,1.567,9.094,4.23,14.6,6.5,27.587" fill="#74d8dd"/>
          </g>
        </g>
      </g>
    </g>
  </g>
</svg>
